<svg width="39" height="52" viewBox="0 0 39 52" fill="none" xmlns="http://www.w3.org/2000/svg">
<path d="M1.08856 38.5254C-0.0502026 34.9175 -0.279663 31.2712 0.673818 27.5895C1.36791 24.9123 2.5309 22.4621 4.35377 20.3481C4.8241 20.2615 4.81697 20.612 4.8583 20.9057C4.93241 21.4391 4.80415 21.9683 4.81127 22.5004C3.47583 24.6371 2.47246 26.9 2.0677 29.407C1.51328 32.8461 1.93515 36.1575 3.32048 39.3526C3.35753 39.4377 3.37749 39.5299 3.40599 39.6193C3.53996 40.3486 3.65399 41.0807 3.56705 41.8227C3.52999 42.1419 3.51146 42.5363 2.98697 42.3547C2.14466 41.1814 1.64583 39.8407 1.08999 38.5269L1.08856 38.5254Z" fill="#B5895C"/>
<path d="M2.98555 42.3533C3.28058 42.1362 3.24495 41.8156 3.24067 41.5134C3.22927 40.8749 3.25492 40.2407 3.40457 39.6179C4.3039 41.4382 5.46831 43.0769 6.83369 44.5779C6.92348 45.0405 7.04747 45.4959 6.99616 45.9769C6.96338 46.2819 6.87645 46.5273 6.53154 46.5884C6.05836 46.157 5.58375 45.7257 5.11058 45.2944C4.38086 44.3297 3.53427 43.45 2.98555 42.3547V42.3533Z" fill="#B5895C"/>
<path d="M16.36 49.5692C16.5652 49.5607 16.8075 49.6189 16.7861 49.2741C16.7733 49.0627 16.7861 48.8485 16.7861 48.6356C16.7861 37.3393 16.7861 26.0445 16.7861 14.7482C16.7861 13.8813 16.789 13.8799 17.5401 14.2942C18.7843 14.9809 20.0086 15.7059 21.2784 16.3415C21.8628 16.6337 22.0025 17.0055 22.0025 17.6169C21.9839 27.8492 21.9882 38.0814 21.9868 48.3136C21.9868 48.4796 21.9868 48.6442 21.9868 48.8102C21.9915 49.3729 22.2671 49.5881 22.8134 49.4557C22.9274 49.4287 23.0486 49.4273 23.1669 49.4146C23.9166 49.6245 24.0434 50.2658 23.4804 51.0121C21.3668 51.5881 19.2233 51.6307 17.064 51.3725C16.8289 51.3441 16.5951 51.3001 16.36 51.2632C15.8968 50.6801 15.8968 50.0714 16.36 49.5664V49.5692Z" fill="#B5895C"/>
<path d="M13.203 50.4886C12.2082 50.1977 11.2761 49.7622 10.374 49.2585C9.95493 48.7236 9.98629 48.0894 10.0248 47.4737C10.0946 46.35 10.0861 45.2263 10.0832 44.1012C10.0533 30.044 10.1445 15.9854 10.0547 1.92813C10.0519 1.57628 10.0789 1.19463 10.1188 0.828583C10.1659 0.393019 10.2756 0.244049 10.6946 0.346201C11.6652 0.820072 12.6201 1.32374 13.5266 1.91537C13.6363 9.71438 13.5565 17.5134 13.5708 25.3124C13.585 33.2547 13.5793 41.197 13.5636 49.1379C13.5636 49.6018 13.7461 50.1523 13.203 50.4886Z" fill="#B5895C"/>
<path d="M13.203 50.4886C13.2087 47.2538 13.2173 44.019 13.2187 40.7841C13.2201 28.2464 13.2187 15.7101 13.223 3.1724C13.223 2.73542 13.1175 2.26013 13.5266 1.91537C14.9447 2.27715 15.0986 3.25185 15.0943 4.5628C15.0459 18.979 15.063 33.3937 15.0615 47.8099C15.0615 48.7264 15.4939 49.3124 16.3585 49.5678C16.3585 50.1339 16.3585 50.6985 16.3585 51.2646C15.281 51.1114 14.2221 50.8787 13.203 50.4871L13.203 50.4886Z" fill="#B5895C"/>
<path d="M23.479 51.0149C23.422 50.473 23.6515 49.8757 23.1655 49.4174C23.6885 49.2968 23.737 48.935 23.737 48.4668C23.7227 41.9816 23.7256 35.4964 23.7284 29.0111C23.7284 28.7104 23.6714 28.4025 23.8382 28.0024C25.205 28.7714 27.9044 30.2909 27.9044 30.2909C27.9044 30.2909 28.2464 30.996 28.2478 31.4018C28.2578 37.0613 28.2564 42.7208 28.2493 48.3788C28.2493 48.786 28.1652 49.162 27.9129 49.4912C26.5105 50.2162 25.0639 50.8135 23.4804 51.0164L23.479 51.0149Z" fill="#B5895C"/>
<path d="M10.6946 0.346201C10.4709 0.482403 10.3825 0.690957 10.3768 0.943499C10.374 1.08538 10.3697 1.22725 10.3697 1.36913C10.3697 17.3318 10.3725 33.2958 10.374 49.2585C8.95584 48.5647 7.68314 47.6624 6.53155 46.5869C6.80092 45.9414 6.5173 45.215 6.8337 44.5765C7.62898 45.3185 8.46844 46.0038 9.36207 46.6266C9.73833 46.8877 9.85662 46.7799 9.84237 46.367C9.83524 46.1542 9.84237 45.9414 9.84237 45.73C9.84237 30.8797 9.83951 16.0279 9.83951 1.1776C9.83951 1.03572 9.82669 0.892424 9.84237 0.753384C9.86945 0.503679 9.71552 0.150405 9.96494 0.0312275C10.2258 -0.092206 10.4737 0.17878 10.6947 0.347614L10.6946 0.346201Z" fill="#B5895C"/>
<path d="M36.5555 23.6397C37.3878 25.3748 38.0948 27.1568 38.3926 29.0665C39.1038 33.6278 38.4268 37.9423 36.0282 41.9419C35.9199 42.122 35.8115 42.3008 35.7032 42.481C35.1802 42.5406 35.1631 42.1575 35.116 41.8085C35.0234 41.1161 35.2258 40.4479 35.2942 39.7683C35.9512 38.2587 36.4429 36.691 36.6695 35.0679C36.8705 33.6363 36.9703 32.2076 36.7992 30.7321C36.6353 29.3318 36.2833 27.9896 36.0125 26.6219C36.0054 25.8019 35.8942 24.9832 35.9754 24.1632C36.0082 23.8354 36.0467 23.4666 36.5555 23.6397Z" fill="#B5895C"/>
<path d="M27.9115 49.4897C27.9086 43.0897 27.9058 36.6896 27.9029 30.2895C28.6768 30.481 28.9434 30.9265 28.9348 31.7579C28.8892 36.5434 28.9106 41.3289 28.9163 46.1145C28.9163 46.3358 28.7966 46.6494 29.0232 46.7614C29.2498 46.8735 29.4351 46.5912 29.6189 46.4607C30.1391 46.0918 30.6408 45.6988 31.151 45.3157C31.5073 45.2646 31.5971 45.4987 31.6313 45.774C31.6912 46.2649 31.6841 46.7529 31.4788 47.2183C30.3942 48.1377 29.2198 48.9166 27.9115 49.4883V49.4897Z" fill="#B5895C"/>
<path d="M31.4803 47.2197C31.1696 46.6196 31.4803 45.9144 31.1525 45.3171C32.8342 43.6912 34.2466 41.8652 35.2942 39.7683C35.5122 40.2791 35.4381 40.8196 35.4495 41.3502C35.4581 41.7461 35.4381 42.1447 35.7047 42.481C34.6144 44.341 33.1877 45.9045 31.4803 47.2197Z" fill="#B5895C"/>
<path d="M36.5555 23.6397C36.1721 23.9674 36.3432 24.4143 36.3061 24.8144C36.2505 25.4245 36.46 26.0757 36.0125 26.6219C35.354 25.1407 34.7098 23.6524 33.745 22.333C33.6495 22.2024 33.5497 22.0747 33.4528 21.9456C33.2404 21.3412 33.2062 20.7184 33.2846 20.0913C33.3245 19.7749 33.4157 19.4628 33.8632 19.6699C34.9364 20.8759 35.8671 22.1769 36.5569 23.6397L36.5555 23.6397Z" fill="#B5895C"/>
<path d="M4.81129 22.499C4.51912 22.1712 4.5291 21.7697 4.52768 21.3696C4.52483 21.0192 4.55475 20.6631 4.35522 20.3467C5.35716 18.9889 6.59141 17.8738 7.94538 16.8522C8.34445 17.9078 8.15774 18.8442 7.41804 19.5224C6.43891 20.4205 5.63366 21.4661 4.81273 22.499H4.81129Z" fill="#B5895C"/>
<path d="M33.8618 19.6699C33.5597 19.8756 33.6195 20.1949 33.5953 20.4914C33.5554 20.9766 33.5012 21.4604 33.4528 21.9442C32.9212 21.1412 32.2855 20.4077 31.5287 19.8317C30.4812 19.0343 30.5781 18.01 30.7035 16.804C31.9349 17.6638 32.9668 18.5888 33.8632 19.6699L33.8618 19.6699Z" fill="#B5895C"/>
</svg>
