<svg width="39" height="52" viewBox="0 0 39 52" fill="none" xmlns="http://www.w3.org/2000/svg">
<path d="M1.01043 38.5254C-0.128328 34.9175 -0.357788 31.2712 0.595693 27.5895C1.28978 24.9123 2.45277 22.4621 4.27565 20.3481C4.74598 20.2615 4.73885 20.612 4.78018 20.9057C4.85429 21.4391 4.72602 21.9683 4.73315 22.5004C3.3977 24.6371 2.39434 26.9 1.98957 29.407C1.43515 32.8461 1.85703 36.1575 3.24235 39.3526C3.27941 39.4377 3.29936 39.5299 3.32787 39.6193C3.46184 40.3486 3.57586 41.0807 3.48892 41.8227C3.45186 42.1419 3.43333 42.5363 2.90885 42.3547C2.06653 41.1814 1.5677 39.8407 1.01186 38.5269L1.01043 38.5254Z" fill="#F8F3EF"/>
<path d="M2.90743 42.3533C3.20245 42.1362 3.16682 41.8156 3.16255 41.5134C3.15114 40.8749 3.1768 40.2407 3.32645 39.6179C4.22577 41.4382 5.39019 43.0769 6.75556 44.5779C6.84535 45.0405 6.96934 45.4959 6.91804 45.9769C6.88526 46.2819 6.79832 46.5273 6.45342 46.5884C5.98024 46.157 5.50563 45.7257 5.03245 45.2944C4.30273 44.3297 3.45615 43.45 2.90743 42.3547V42.3533Z" fill="#F8F3EF"/>
<path d="M16.2818 49.5692C16.4871 49.5607 16.7294 49.6189 16.708 49.2741C16.6952 49.0627 16.708 48.8485 16.708 48.6356C16.708 37.3393 16.708 26.0445 16.708 14.7482C16.708 13.8813 16.7108 13.8799 17.4619 14.2942C18.7062 14.9809 19.9304 15.7059 21.2003 16.3415C21.7847 16.6337 21.9243 17.0055 21.9243 17.6169C21.9058 27.8492 21.9101 38.0814 21.9087 48.3136C21.9087 48.4796 21.9087 48.6442 21.9087 48.8102C21.9134 49.3729 22.189 49.5881 22.7353 49.4557C22.8493 49.4287 22.9705 49.4273 23.0888 49.4146C23.8384 49.6245 23.9653 50.2658 23.4023 51.0121C21.2887 51.5881 19.1451 51.6307 16.9859 51.3725C16.7507 51.3441 16.517 51.3001 16.2818 51.2632C15.8186 50.6801 15.8186 50.0714 16.2818 49.5664V49.5692Z" fill="#F8F3EF"/>
<path d="M13.1249 50.4886C12.1301 50.1977 11.198 49.7622 10.2958 49.2585C9.87681 48.7236 9.90817 48.0894 9.94665 47.4737C10.0165 46.35 10.0079 45.2263 10.0051 44.1012C9.97515 30.044 10.0664 15.9854 9.97658 1.92813C9.97373 1.57628 10.0008 1.19463 10.0407 0.828583C10.0878 0.393019 10.1975 0.244049 10.6165 0.346201C11.5871 0.820072 12.542 1.32374 13.4484 1.91537C13.5582 9.71438 13.4784 17.5134 13.4926 25.3124C13.5069 33.2547 13.5012 41.197 13.4855 49.1379C13.4855 49.6018 13.6679 50.1523 13.1249 50.4886Z" fill="#F8F3EF"/>
<path d="M13.1249 50.4886C13.1306 47.2538 13.1392 44.019 13.1406 40.7841C13.142 28.2464 13.1406 15.7101 13.1449 3.1724C13.1449 2.73542 13.0394 2.26013 13.4484 1.91537C14.8665 2.27715 15.0205 3.25185 15.0162 4.5628C14.9677 18.979 14.9848 33.3937 14.9834 47.8099C14.9834 48.7264 15.4157 49.3124 16.2804 49.5678C16.2804 50.1339 16.2804 50.6985 16.2804 51.2646C15.2029 51.1114 14.144 50.8787 13.1249 50.4871L13.1249 50.4886Z" fill="#F8F3EF"/>
<path d="M23.4009 51.0149C23.3439 50.473 23.5733 49.8757 23.0873 49.4174C23.6104 49.2968 23.6588 48.935 23.6588 48.4668C23.6446 41.9816 23.6474 35.4964 23.6503 29.0111C23.6503 28.7104 23.5933 28.4025 23.76 28.0024C25.1268 28.7714 27.8262 30.2909 27.8262 30.2909C27.8262 30.2909 28.1683 30.996 28.1697 31.4018C28.1797 37.0613 28.1783 42.7208 28.1711 48.3788C28.1711 48.786 28.087 49.162 27.8348 49.4912C26.4324 50.2162 24.9857 50.8135 23.4023 51.0164L23.4009 51.0149Z" fill="#F8F3EF"/>
<path d="M10.6165 0.346201C10.3927 0.482403 10.3044 0.690957 10.2987 0.943499C10.2959 1.08538 10.2916 1.22725 10.2916 1.36913C10.2916 17.3318 10.2944 33.2958 10.2958 49.2585C8.87772 48.5647 7.60502 47.6624 6.45343 46.5869C6.7228 45.9414 6.43917 45.215 6.75558 44.5765C7.55086 45.3185 8.39032 46.0038 9.28394 46.6266C9.6602 46.8877 9.77849 46.7799 9.76424 46.367C9.75712 46.1542 9.76424 45.9414 9.76424 45.73C9.76424 30.8797 9.76139 16.0279 9.76139 1.1776C9.76139 1.03572 9.74856 0.892424 9.76424 0.753384C9.79132 0.503679 9.6374 0.150405 9.88681 0.0312275C10.1476 -0.092206 10.3956 0.17878 10.6165 0.347614L10.6165 0.346201Z" fill="#F8F3EF"/>
<path d="M36.4774 23.6397C37.3097 25.3748 38.0166 27.1568 38.3145 29.0665C39.0257 33.6278 38.3487 37.9423 35.95 41.9419C35.8417 42.122 35.7334 42.3008 35.6251 42.481C35.102 42.5406 35.0849 42.1575 35.0379 41.8085C34.9453 41.1161 35.1477 40.4479 35.2161 39.7683C35.8731 38.2587 36.3648 36.691 36.5914 35.0679C36.7924 33.6363 36.8921 32.2076 36.7211 30.7321C36.5572 29.3318 36.2052 27.9896 35.9344 26.6219C35.9273 25.8019 35.8161 24.9832 35.8973 24.1632C35.9301 23.8354 35.9686 23.4666 36.4774 23.6397Z" fill="#F8F3EF"/>
<path d="M27.8334 49.4897C27.8305 43.0897 27.8277 36.6896 27.8248 30.2895C28.5987 30.481 28.8652 30.9265 28.8567 31.7579C28.8111 36.5434 28.8324 41.3289 28.8381 46.1145C28.8381 46.3358 28.7184 46.6494 28.945 46.7614C29.1717 46.8735 29.3569 46.5912 29.5408 46.4607C30.061 46.0918 30.5627 45.6988 31.0729 45.3157C31.4292 45.2646 31.519 45.4987 31.5532 45.774C31.6131 46.2649 31.6059 46.7529 31.4007 47.2183C30.3161 48.1377 29.1417 48.9166 27.8334 49.4883V49.4897Z" fill="#F8F3EF"/>
<path d="M31.4021 47.2197C31.0914 46.6196 31.4021 45.9144 31.0743 45.3171C32.7561 43.6912 34.1685 41.8652 35.2161 39.7683C35.4341 40.2791 35.36 40.8196 35.3714 41.3502C35.38 41.7461 35.36 42.1447 35.6265 42.481C34.5362 44.341 33.1096 45.9045 31.4021 47.2197Z" fill="#F8F3EF"/>
<path d="M36.4774 23.6397C36.094 23.9674 36.265 24.4143 36.228 24.8144C36.1724 25.4245 36.3819 26.0757 35.9344 26.6219C35.2759 25.1407 34.6317 23.6524 33.6668 22.333C33.5713 22.2024 33.4716 22.0747 33.3747 21.9456C33.1623 21.3412 33.1281 20.7184 33.2065 20.0913C33.2464 19.7749 33.3376 19.4628 33.7851 19.6699C34.8583 20.8759 35.789 22.1769 36.4788 23.6397L36.4774 23.6397Z" fill="#F8F3EF"/>
<path d="M4.73317 22.499C4.441 22.1712 4.45098 21.7697 4.44955 21.3696C4.4467 21.0192 4.47663 20.6631 4.27709 20.3467C5.27903 18.9889 6.51328 17.8738 7.86726 16.8522C8.26632 17.9078 8.07962 18.8442 7.33992 19.5224C6.36078 20.4205 5.55553 21.4661 4.7346 22.499H4.73317Z" fill="#F8F3EF"/>
<path d="M33.7837 19.6699C33.4816 19.8756 33.5414 20.1949 33.5172 20.4914C33.4773 20.9766 33.4231 21.4604 33.3747 21.9442C32.8431 21.1412 32.2074 20.4077 31.4506 19.8317C30.4031 19.0343 30.5 18.01 30.6254 16.804C31.8568 17.6638 32.8886 18.5888 33.7851 19.6699L33.7837 19.6699Z" fill="#F8F3EF"/>
</svg>
