<svg width="84" height="73" viewBox="0 0 84 73" fill="none" xmlns="http://www.w3.org/2000/svg">
<path d="M24.0102 38.5254C22.8714 34.9175 22.642 31.2712 23.5954 27.5895C24.2895 24.9123 25.4525 22.4621 27.2754 20.3481C27.7457 20.2615 27.7386 20.612 27.7799 20.9057C27.854 21.4391 27.7258 21.9683 27.7329 22.5004C26.3975 24.6371 25.3941 26.9 24.9893 29.407C24.4349 32.8461 24.8568 36.1575 26.2421 39.3526C26.2792 39.4377 26.2991 39.5299 26.3276 39.6193C26.4616 40.3486 26.5756 41.0807 26.4887 41.8227C26.4516 42.1419 26.4331 42.5363 25.9086 42.3547C25.0663 41.1814 24.5675 39.8407 24.0116 38.5269L24.0102 38.5254Z" fill="#F8F3EF"/>
<path d="M25.9072 42.3533C26.2022 42.1362 26.1666 41.8156 26.1623 41.5134C26.1509 40.8749 26.1766 40.2407 26.3262 39.6179C27.2255 41.4382 28.3899 43.0769 29.7553 44.5779C29.8451 45.0405 29.9691 45.4959 29.9178 45.9769C29.885 46.2819 29.7981 46.5273 29.4532 46.5884C28.98 46.157 28.5054 45.7257 28.0322 45.2944C27.3025 44.3297 26.4559 43.45 25.9072 42.3547V42.3533Z" fill="#F8F3EF"/>
<path d="M39.2816 49.5692C39.4868 49.5607 39.7291 49.6189 39.7077 49.2741C39.6949 49.0627 39.7077 48.8485 39.7077 48.6356C39.7077 37.3393 39.7077 26.0445 39.7077 14.7482C39.7077 13.8813 39.7106 13.8799 40.4617 14.2942C41.7059 14.9809 42.9302 15.7059 44.2001 16.3415C44.7844 16.6337 44.9241 17.0055 44.9241 17.6169C44.9056 27.8492 44.9098 38.0814 44.9084 48.3136C44.9084 48.4796 44.9084 48.6442 44.9084 48.8102C44.9132 49.3729 45.1887 49.5881 45.7351 49.4557C45.8491 49.4287 45.9702 49.4273 46.0885 49.4146C46.8382 49.6245 46.965 50.2658 46.4021 51.0121C44.2884 51.5881 42.1449 51.6307 39.9857 51.3725C39.7505 51.3441 39.5168 51.3001 39.2816 51.2632C38.8184 50.6801 38.8184 50.0714 39.2816 49.5664V49.5692Z" fill="#F8F3EF"/>
<path d="M36.1247 50.4886C35.1299 50.1977 34.1978 49.7622 33.2956 49.2585C32.8766 48.7236 32.9079 48.0894 32.9464 47.4737C33.0162 46.35 33.0077 45.2263 33.0048 44.1012C32.9749 30.044 33.0661 15.9854 32.9763 1.92813C32.9735 1.57628 33.0006 1.19463 33.0405 0.828583C33.0875 0.393019 33.1972 0.244049 33.6163 0.346201C34.5869 0.820072 35.5417 1.32374 36.4482 1.91537C36.5579 9.71438 36.4781 17.5134 36.4924 25.3124C36.5066 33.2547 36.5009 41.197 36.4853 49.1379C36.4853 49.6018 36.6677 50.1523 36.1247 50.4886Z" fill="#F8F3EF"/>
<path d="M36.1247 50.4886C36.1304 47.2538 36.1389 44.019 36.1404 40.7841C36.1418 28.2464 36.1404 15.7101 36.1446 3.1724C36.1446 2.73542 36.0392 2.26013 36.4482 1.91537C37.8663 2.27715 38.0202 3.25185 38.016 4.5628C37.9675 18.979 37.9846 33.3937 37.9832 47.8099C37.9832 48.7264 38.4155 49.3124 39.2801 49.5678C39.2801 50.1339 39.2801 50.6985 39.2801 51.2646C38.2027 51.1114 37.1437 50.8787 36.1247 50.4871L36.1247 50.4886Z" fill="#F8F3EF"/>
<path d="M46.4006 51.0149C46.3436 50.473 46.5731 49.8757 46.0871 49.4174C46.6101 49.2968 46.6586 48.935 46.6586 48.4668C46.6443 41.9816 46.6472 35.4964 46.65 29.0111C46.65 28.7104 46.593 28.4025 46.7598 28.0024C48.1266 28.7714 50.826 30.2909 50.826 30.2909C50.826 30.2909 51.168 30.996 51.1695 31.4018C51.1794 37.0613 51.178 42.7208 51.1709 48.3788C51.1709 48.786 51.0868 49.162 50.8345 49.4912C49.4321 50.2162 47.9855 50.8135 46.4021 51.0164L46.4006 51.0149Z" fill="#F8F3EF"/>
<path d="M33.6163 0.346201C33.3925 0.482403 33.3042 0.690957 33.2985 0.943499C33.2956 1.08538 33.2913 1.22725 33.2913 1.36913C33.2913 17.3318 33.2942 33.2958 33.2956 49.2585C31.8775 48.5647 30.6048 47.6624 29.4532 46.5869C29.7226 45.9414 29.4389 45.215 29.7553 44.5765C30.5506 45.3185 31.3901 46.0038 32.2837 46.6266C32.66 46.8877 32.7782 46.7799 32.764 46.367C32.7569 46.1542 32.764 45.9414 32.764 45.73C32.764 30.8797 32.7611 16.0279 32.7611 1.1776C32.7611 1.03572 32.7483 0.892424 32.764 0.753384C32.7911 0.503679 32.6372 0.150405 32.8866 0.0312275C33.1474 -0.092206 33.3954 0.17878 33.6163 0.347614L33.6163 0.346201Z" fill="#F8F3EF"/>
<path d="M59.4771 23.6397C60.3095 25.3748 61.0164 27.1568 61.3143 29.0665C62.0255 33.6278 61.3485 37.9423 58.9498 41.9419C58.8415 42.122 58.7332 42.3008 58.6249 42.481C58.1018 42.5406 58.0847 42.1575 58.0377 41.8085C57.945 41.1161 58.1474 40.4479 58.2158 39.7683C58.8728 38.2587 59.3646 36.691 59.5912 35.0679C59.7921 33.6363 59.8919 32.2076 59.7209 30.7321C59.557 29.3318 59.2049 27.9896 58.9341 26.6219C58.927 25.8019 58.8158 24.9832 58.8971 24.1632C58.9299 23.8354 58.9683 23.4666 59.4771 23.6397Z" fill="#F8F3EF"/>
<path d="M50.8331 49.4897C50.8303 43.0897 50.8274 36.6896 50.8246 30.2895C51.5985 30.481 51.865 30.9265 51.8564 31.7579C51.8108 36.5434 51.8322 41.3289 51.8379 46.1145C51.8379 46.3358 51.7182 46.6494 51.9448 46.7614C52.1714 46.8735 52.3567 46.5912 52.5405 46.4607C53.0607 46.0918 53.5624 45.6988 54.0727 45.3157C54.429 45.2646 54.5188 45.4987 54.553 45.774C54.6128 46.2649 54.6057 46.7529 54.4005 47.2183C53.3159 48.1377 52.1415 48.9166 50.8331 49.4883V49.4897Z" fill="#F8F3EF"/>
<path d="M54.4019 47.2197C54.0912 46.6196 54.4019 45.9144 54.0741 45.3171C55.7559 43.6912 57.1683 41.8652 58.2158 39.7683C58.4339 40.2791 58.3598 40.8196 58.3712 41.3502C58.3797 41.7461 58.3598 42.1447 58.6263 42.481C57.536 44.341 56.1093 45.9045 54.4019 47.2197Z" fill="#F8F3EF"/>
<path d="M59.4771 23.6397C59.0938 23.9674 59.2648 24.4143 59.2277 24.8144C59.1721 25.4245 59.3817 26.0757 58.9341 26.6219C58.2757 25.1407 57.6315 23.6524 56.6666 22.333C56.5711 22.2024 56.4713 22.0747 56.3744 21.9456C56.1621 21.3412 56.1278 20.7184 56.2062 20.0913C56.2461 19.7749 56.3374 19.4628 56.7849 19.6699C57.8581 20.8759 58.7888 22.1769 59.4786 23.6397L59.4771 23.6397Z" fill="#F8F3EF"/>
<path d="M27.7329 22.499C27.4408 22.1712 27.4507 21.7697 27.4493 21.3696C27.4465 21.0192 27.4764 20.6631 27.2768 20.3467C28.2788 18.9889 29.513 17.8738 30.867 16.8522C31.2661 17.9078 31.0794 18.8442 30.3397 19.5224C29.3605 20.4205 28.5553 21.4661 27.7344 22.499H27.7329Z" fill="#F8F3EF"/>
<path d="M56.7835 19.6699C56.4813 19.8756 56.5412 20.1949 56.5169 20.4914C56.477 20.9766 56.4229 21.4604 56.3744 21.9442C55.8428 21.1412 55.2072 20.4077 54.4504 19.8317C53.4028 19.0343 53.4997 18.01 53.6252 16.804C54.8566 17.6638 55.8884 18.5888 56.7849 19.6699L56.7835 19.6699Z" fill="#F8F3EF"/>
<path d="M8.17276 61.484H10.31V72.2683H8.24801V65.2739L5.2829 70.2809H5.04208L2.07696 65.2893V72.2683H-0.00012207V61.484H2.13717L5.16249 66.5834L8.17276 61.484Z" fill="white"/>
<path d="M16.2016 72.484C15.0276 72.484 14.0643 72.1451 13.3117 71.4672C12.5592 70.7893 12.1829 69.8804 12.1829 68.7403V61.484H14.2449V68.5708C14.2449 69.6955 14.862 70.4042 16.2016 70.4042C17.5412 70.4042 18.1583 69.6955 18.1583 68.5708V61.484H20.2353V68.7403C20.2353 69.8804 19.8591 70.7893 19.1065 71.4672C18.3539 72.1451 17.3906 72.484 16.2016 72.484Z" fill="white"/>
<path d="M30.8434 72.2683H28.5857L27.9535 70.3271H23.7542L23.122 72.2683H20.8794L24.567 61.484H27.1407L30.8434 72.2683ZM25.8614 63.9336L24.4164 68.3398H27.3063L25.8614 63.9336Z" fill="white"/>
<path d="M41.725 68.0624V61.484H43.8021V72.2683H42.2217L37.7063 65.6745V72.2683H35.6292V61.484H37.2096L41.725 68.0624Z" fill="white"/>
<path d="M51.747 65.7669V61.484H53.809V72.2683H51.747V67.8005H47.8336V72.2683H45.7565V61.484H47.8336V65.7669H51.747Z" fill="white"/>
<path d="M64.7971 72.2683H62.5394L61.9072 70.3271H57.7079L57.0757 72.2683H54.8331L58.5207 61.484H61.0944L64.7971 72.2683ZM59.8151 63.9336L58.3702 68.3398H61.26L59.8151 63.9336Z" fill="white"/>
<path d="M71.9159 68.0624V61.484H73.993V72.2683H72.4126L67.8972 65.6745V72.2683H65.8201V61.484H67.4005L71.9159 68.0624Z" fill="white"/>
<path d="M81.9379 65.7669V61.484H83.9999V72.2683H81.9379V67.8005H78.0245V72.2683H75.9474V61.484H78.0245V65.7669H81.9379Z" fill="white"/>
</svg>
