<svg width="112" height="151" viewBox="0 0 112 151" fill="none" xmlns="http://www.w3.org/2000/svg">
<path d="M2.93316 112.658C-0.372519 102.154 -1.03862 91.5392 1.72922 80.8207C3.74408 73.0266 7.1201 65.8933 12.4117 59.7389C13.777 59.487 13.7563 60.5072 13.8763 61.3622C14.0914 62.9152 13.7191 64.4559 13.7397 66.0048C9.86311 72.2253 6.95046 78.8133 5.77548 86.1118C4.16607 96.124 5.39072 105.765 9.41215 115.066C9.51972 115.314 9.57763 115.583 9.66038 115.843C10.0493 117.966 10.3803 120.097 10.1279 122.257C10.0203 123.187 9.96654 124.335 8.44402 123.806C5.99889 120.39 4.55085 116.487 2.93731 112.662L2.93316 112.658Z" fill="#F8F3EF"/>
<path d="M8.43991 123.802C9.29633 123.17 9.19289 122.237 9.18048 121.357C9.14738 119.498 9.22185 117.652 9.65627 115.839C12.2669 121.138 15.6471 125.909 19.6106 130.279C19.8712 131.625 20.2311 132.951 20.0822 134.351C19.987 135.239 19.7347 135.954 18.7335 136.132C17.3599 134.876 15.9822 133.62 14.6086 132.365C12.4903 129.556 10.0328 126.995 8.43991 123.806V123.802Z" fill="#F8F3EF"/>
<path d="M47.2642 144.81C47.8599 144.785 48.5633 144.954 48.5012 143.95C48.464 143.335 48.5012 142.711 48.5012 142.092C48.5012 109.205 48.5012 76.3227 48.5012 43.4361C48.5012 40.9124 48.5095 40.9082 50.6898 42.1143C54.3017 44.1134 57.8556 46.2241 61.5419 48.0745C63.2382 48.9254 63.6436 50.0076 63.6436 51.7878C63.5899 81.5766 63.6023 111.365 63.5981 141.154C63.5981 141.637 63.5981 142.117 63.5981 142.6C63.6119 144.238 64.4118 144.865 65.9977 144.479C66.3287 144.401 66.6804 144.397 67.0238 144.359C69.2 144.971 69.5682 146.838 67.934 149.01C61.7984 150.687 55.5759 150.811 49.308 150.059C48.6253 149.977 47.9468 149.849 47.2642 149.741C45.9195 148.044 45.9195 146.272 47.2642 144.801V144.81Z" fill="#F8F3EF"/>
<path d="M38.1 147.486C35.2122 146.639 32.5064 145.371 29.8875 143.905C28.6712 142.348 28.7622 140.502 28.8739 138.709C29.0766 135.438 29.0518 132.166 29.0435 128.891C28.9566 87.9664 29.2214 47.0378 28.9608 6.11333C28.9525 5.08898 29.0311 3.97789 29.147 2.91224C29.2835 1.64419 29.6021 1.21049 30.8184 1.50789C33.6359 2.88745 36.4079 4.35376 39.0392 6.07616C39.3577 28.7812 39.1261 51.4863 39.1674 74.1914C39.2088 97.3136 39.1923 120.436 39.1468 143.554C39.1468 144.905 39.6763 146.507 38.1 147.486Z" fill="#F8F3EF"/>
<path d="M38.1 147.486C38.1166 138.069 38.1414 128.651 38.1455 119.234C38.1497 82.7331 38.1455 46.2365 38.1579 9.73573C38.1579 8.46355 37.8518 7.07986 39.0392 6.07616C43.1558 7.12942 43.6026 9.96704 43.5902 13.7836C43.4495 55.753 43.4991 97.7184 43.495 139.688C43.495 142.356 44.75 144.062 47.2599 144.805C47.2599 146.454 47.2599 148.097 47.2599 149.746C44.1321 149.299 41.0582 148.622 38.1 147.482L38.1 147.486Z" fill="#F8F3EF"/>
<path d="M67.9299 149.019C67.7644 147.441 68.4305 145.702 67.0197 144.368C68.538 144.017 68.6787 142.963 68.6787 141.6C68.6373 122.72 68.6456 103.84 68.6539 84.9594C68.6539 84.0838 68.4884 83.1875 68.9725 82.0227C72.9401 84.2614 80.7761 88.6851 80.7761 88.6851C80.7761 88.6851 81.769 90.7379 81.7732 91.9192C81.8021 108.396 81.798 124.872 81.7773 141.344C81.7773 142.53 81.5332 143.624 80.8009 144.582C76.7298 146.693 72.5305 148.432 67.934 149.023L67.9299 149.019Z" fill="#F8F3EF"/>
<path d="M30.8184 1.50789C30.1689 1.90441 29.9124 2.51157 29.8959 3.24679C29.8876 3.65983 29.8752 4.07288 29.8752 4.48592C29.8752 50.9576 29.8834 97.4334 29.8875 143.905C25.7709 141.885 22.0764 139.258 18.7335 136.127C19.5154 134.248 18.6921 132.133 19.6106 130.275C21.9192 132.435 24.3561 134.43 26.9501 136.243C28.0424 137.003 28.3858 136.689 28.3444 135.487C28.3237 134.868 28.3444 134.248 28.3444 133.633C28.3444 90.3992 28.3361 47.1617 28.3361 3.92831C28.3361 3.51527 28.2989 3.09809 28.3444 2.69331C28.423 1.96635 27.9762 0.937869 28.7002 0.590912C29.4573 0.231563 30.1772 1.02048 30.8185 1.512L30.8184 1.50789Z" fill="#F8F3EF"/>
<path d="M105.889 69.3216C108.306 74.3731 110.358 79.5609 111.222 85.1205C113.287 98.3999 111.322 110.961 104.359 122.604C104.044 123.129 103.73 123.649 103.415 124.174C101.897 124.347 101.847 123.232 101.711 122.216C101.442 120.2 102.029 118.255 102.228 116.276C104.135 111.882 105.562 107.318 106.22 102.592C106.804 98.4247 107.093 94.2653 106.597 89.9697C106.121 85.8929 105.099 81.9855 104.313 78.0038C104.292 75.6164 103.97 73.2331 104.205 70.8457C104.301 69.8916 104.412 68.8176 105.889 69.3216Z" fill="#F8F3EF"/>
<path d="M80.7968 144.578C80.7885 125.946 80.7802 107.313 80.7719 88.681C83.0185 89.2386 83.7922 90.5355 83.7674 92.956C83.635 106.888 83.697 120.82 83.7136 134.752C83.7136 135.396 83.366 136.309 84.0239 136.635C84.6817 136.962 85.2195 136.14 85.7532 135.76C87.2633 134.686 88.7197 133.542 90.2008 132.427C91.2351 132.278 91.4958 132.959 91.5951 133.761C91.7688 135.19 91.7481 136.611 91.1524 137.965C88.0039 140.642 84.5948 142.91 80.7968 144.574V144.578Z" fill="#F8F3EF"/>
<path d="M91.1565 137.97C90.2546 136.222 91.1565 134.17 90.205 132.431C95.087 127.697 99.187 122.381 102.228 116.276C102.861 117.763 102.646 119.337 102.679 120.882C102.704 122.034 102.646 123.195 103.419 124.174C100.254 129.589 96.113 134.141 91.1565 137.97Z" fill="#F8F3EF"/>
<path d="M105.889 69.3216C104.776 70.2757 105.273 71.5768 105.165 72.7416C105.004 74.5177 105.612 76.4135 104.313 78.0038C102.402 73.6916 100.532 69.3587 97.7307 65.5174C97.4535 65.1374 97.1638 64.7657 96.8825 64.3898C96.266 62.6302 96.1667 60.817 96.3943 58.9913C96.5101 58.0702 96.7749 57.1615 98.074 57.7646C101.189 61.2754 103.891 65.0631 105.893 69.3216L105.889 69.3216Z" fill="#F8F3EF"/>
<path d="M13.7398 66.0007C12.8917 65.0465 12.9206 63.8776 12.9165 62.7128C12.9082 61.6926 12.9951 60.6559 12.4159 59.7348C15.3244 55.782 18.9073 52.5354 22.8377 49.5615C23.9961 52.6346 23.4541 55.3607 21.3069 57.335C18.4646 59.9496 16.127 62.9937 13.744 66.0007H13.7398Z" fill="#F8F3EF"/>
<path d="M98.0699 57.7646C97.1928 58.3635 97.3666 59.2928 97.2962 60.1561C97.1804 61.5687 97.0232 62.9772 96.8825 64.3857C95.3393 62.0478 93.4941 59.9124 91.2972 58.2354C88.2563 55.9141 88.5377 52.932 88.9017 49.4211C92.4763 51.9241 95.4717 54.6172 98.074 57.7646L98.0699 57.7646Z" fill="#F8F3EF"/>
</svg>
