<svg width="135" height="18" viewBox="0 0 135 18" fill="none" xmlns="http://www.w3.org/2000/svg">
<path d="M13.9389 0.199999H17.3469V17H14.0589V6.104L9.33092 13.904H8.94692L4.21892 6.128V17H0.906924V0.199999H4.31492L9.13892 8.144L13.9389 0.199999ZM26.7412 17.336C24.8692 17.336 23.3332 16.808 22.1332 15.752C20.9332 14.696 20.3332 13.28 20.3332 11.504V0.199999H23.6212V11.24C23.6212 12.992 24.6052 14.096 26.7412 14.096C28.8772 14.096 29.8612 12.992 29.8612 11.24V0.199999H33.1732V11.504C33.1732 13.28 32.5732 14.696 31.3732 15.752C30.1732 16.808 28.6372 17.336 26.7412 17.336ZM50.0882 17H46.4882L45.4802 13.976H38.7842L37.7762 17H34.2002L40.0802 0.199999H44.1842L50.0882 17ZM42.1442 4.016L39.8402 10.88H44.4482L42.1442 4.016ZM67.4394 10.448V0.199999H70.7514V17H68.2314L61.0314 6.728V17H57.7194V0.199999H60.2394L67.4394 10.448ZM83.4199 6.872V0.199999H86.7079V17H83.4199V10.04H77.1799V17H73.8679V0.199999H77.1799V6.872H83.4199ZM104.229 17H100.629L99.6208 13.976H92.9248L91.9168 17H88.3408L94.2208 0.199999H98.3248L104.229 17ZM96.2848 4.016L93.9808 10.88H98.5888L96.2848 4.016ZM115.58 10.448V0.199999H118.892V17H116.372L109.172 6.728V17H105.86V0.199999H108.38L115.58 10.448ZM131.56 6.872V0.199999H134.848V17H131.56V10.04H125.32V17H122.008V0.199999H125.32V6.872H131.56Z" fill="#B5895C"/>
</svg>
