<svg width="16" height="16" viewBox="0 0 16 16" fill="none" xmlns="http://www.w3.org/2000/svg">
<mask id="mask0_494_20404" style="mask-type:alpha" maskUnits="userSpaceOnUse" x="0" y="0" width="16" height="16">
<rect width="16" height="16" fill="#D9D9D9"/>
</mask>
<g mask="url(#mask0_494_20404)">
<path d="M6.36659 8.00007L11.2666 12.9001C11.4333 13.0667 11.5138 13.2612 11.5083 13.4834C11.5027 13.7056 11.4166 13.9001 11.2499 14.0667C11.0833 14.2334 10.8888 14.3167 10.6666 14.3167C10.4444 14.3167 10.2499 14.2334 10.0833 14.0667L4.94993 8.95007C4.81659 8.81674 4.71659 8.66674 4.64993 8.50007C4.58326 8.33341 4.54993 8.16674 4.54993 8.00007C4.54993 7.83341 4.58326 7.66674 4.64993 7.50007C4.71659 7.33341 4.81659 7.18341 4.94993 7.05007L10.0833 1.91674C10.2499 1.75007 10.4471 1.66952 10.6749 1.67507C10.9027 1.68063 11.0999 1.76674 11.2666 1.93341C11.4333 2.10007 11.5166 2.29452 11.5166 2.51674C11.5166 2.73896 11.4333 2.93341 11.2666 3.10007L6.36659 8.00007Z" fill="#1C1B1F"/>
</g>
</svg>
