<svg width="20" height="20" viewBox="0 0 20 20" fill="none" xmlns="http://www.w3.org/2000/svg">
<mask id="mask0_503_20618" style="mask-type:alpha" maskUnits="userSpaceOnUse" x="0" y="0" width="20" height="20">
<rect width="20" height="20" fill="#D9D9D9"/>
</mask>
<g mask="url(#mask0_503_20618)">
<path d="M4.16667 17.5C3.70833 17.5 3.31597 17.3368 2.98958 17.0105C2.66319 16.6841 2.5 16.2917 2.5 15.8334V4.16671C2.5 3.70837 2.66319 3.31601 2.98958 2.98962C3.31597 2.66324 3.70833 2.50004 4.16667 2.50004H7.66667C7.84722 2.00004 8.14931 1.59726 8.57292 1.29171C8.99653 0.986152 9.47222 0.833374 10 0.833374C10.5278 0.833374 11.0035 0.986152 11.4271 1.29171C11.8507 1.59726 12.1528 2.00004 12.3333 2.50004H15.8333C16.2917 2.50004 16.684 2.66324 17.0104 2.98962C17.3368 3.31601 17.5 3.70837 17.5 4.16671V15.8334C17.5 16.2917 17.3368 16.6841 17.0104 17.0105C16.684 17.3368 16.2917 17.5 15.8333 17.5H4.16667ZM4.16667 15.8334H15.8333V4.16671H4.16667V15.8334ZM6.66667 14.1667H10.8333C11.0694 14.1667 11.2674 14.0868 11.4271 13.9271C11.5868 13.7674 11.6667 13.5695 11.6667 13.3334C11.6667 13.0973 11.5868 12.8993 11.4271 12.7396C11.2674 12.5799 11.0694 12.5 10.8333 12.5H6.66667C6.43056 12.5 6.23264 12.5799 6.07292 12.7396C5.91319 12.8993 5.83333 13.0973 5.83333 13.3334C5.83333 13.5695 5.91319 13.7674 6.07292 13.9271C6.23264 14.0868 6.43056 14.1667 6.66667 14.1667ZM6.66667 10.8334H13.3333C13.5694 10.8334 13.7674 10.7535 13.9271 10.5938C14.0868 10.4341 14.1667 10.2362 14.1667 10C14.1667 9.76393 14.0868 9.56601 13.9271 9.40629C13.7674 9.24657 13.5694 9.16671 13.3333 9.16671H6.66667C6.43056 9.16671 6.23264 9.24657 6.07292 9.40629C5.91319 9.56601 5.83333 9.76393 5.83333 10C5.83333 10.2362 5.91319 10.4341 6.07292 10.5938C6.23264 10.7535 6.43056 10.8334 6.66667 10.8334ZM6.66667 7.50004H13.3333C13.5694 7.50004 13.7674 7.42018 13.9271 7.26046C14.0868 7.10074 14.1667 6.90282 14.1667 6.66671C14.1667 6.4306 14.0868 6.23268 13.9271 6.07296C13.7674 5.91323 13.5694 5.83337 13.3333 5.83337H6.66667C6.43056 5.83337 6.23264 5.91323 6.07292 6.07296C5.91319 6.23268 5.83333 6.4306 5.83333 6.66671C5.83333 6.90282 5.91319 7.10074 6.07292 7.26046C6.23264 7.42018 6.43056 7.50004 6.66667 7.50004ZM10 3.54171C10.1806 3.54171 10.3299 3.48268 10.4479 3.36462C10.566 3.24657 10.625 3.09726 10.625 2.91671C10.625 2.73615 10.566 2.58685 10.4479 2.46879C10.3299 2.35074 10.1806 2.29171 10 2.29171C9.81944 2.29171 9.67014 2.35074 9.55208 2.46879C9.43403 2.58685 9.375 2.73615 9.375 2.91671C9.375 3.09726 9.43403 3.24657 9.55208 3.36462C9.67014 3.48268 9.81944 3.54171 10 3.54171Z" fill="#B5895C"/>
</g>
</svg>
