<svg width="44" height="44" viewBox="0 0 44 44" fill="none" xmlns="http://www.w3.org/2000/svg">
<g filter="url(#filter0_d_494_20400)">
<g filter="url(#filter1_dd_494_20400)">
<circle cx="18" cy="18" r="18" transform="matrix(-1 0 0 1 40 3)" fill="white"/>
</g>
<mask id="mask0_494_20400" style="mask-type:alpha" maskUnits="userSpaceOnUse" x="13" y="13" width="16" height="16">
<rect x="13" y="13" width="16" height="16" fill="#D9D9D9"/>
</mask>
<g mask="url(#mask0_494_20400)">
<path d="M19.3666 21.0001L24.2666 25.9001C24.4333 26.0667 24.5138 26.2612 24.5083 26.4834C24.5027 26.7056 24.4166 26.9001 24.2499 27.0667C24.0833 27.2334 23.8888 27.3167 23.6666 27.3167C23.4444 27.3167 23.2499 27.2334 23.0833 27.0667L17.9499 21.9501C17.8166 21.8167 17.7166 21.6667 17.6499 21.5001C17.5833 21.3334 17.5499 21.1667 17.5499 21.0001C17.5499 20.8334 17.5833 20.6667 17.6499 20.5001C17.7166 20.3334 17.8166 20.1834 17.9499 20.0501L23.0833 14.9167C23.2499 14.7501 23.4471 14.6695 23.6749 14.6751C23.9027 14.6806 24.0999 14.7667 24.2666 14.9334C24.4333 15.1001 24.5166 15.2945 24.5166 15.5167C24.5166 15.739 24.4333 15.9334 24.2666 16.1001L19.3666 21.0001Z" fill="#1C1B1F"/>
</g>
</g>
<defs>
<filter id="filter0_d_494_20400" x="0" y="0" width="44" height="44" filterUnits="userSpaceOnUse" color-interpolation-filters="sRGB">
<feFlood flood-opacity="0" result="BackgroundImageFix"/>
<feColorMatrix in="SourceAlpha" type="matrix" values="0 0 0 0 0 0 0 0 0 0 0 0 0 0 0 0 0 0 127 0" result="hardAlpha"/>
<feOffset dy="1"/>
<feGaussianBlur stdDeviation="2"/>
<feComposite in2="hardAlpha" operator="out"/>
<feColorMatrix type="matrix" values="0 0 0 0 0.0470588 0 0 0 0 0.0470588 0 0 0 0 0.0509804 0 0 0 0.05 0"/>
<feBlend mode="normal" in2="BackgroundImageFix" result="effect1_dropShadow_494_20400"/>
<feBlend mode="normal" in="SourceGraphic" in2="effect1_dropShadow_494_20400" result="shape"/>
</filter>
<filter id="filter1_dd_494_20400" x="0" y="0" width="44" height="44" filterUnits="userSpaceOnUse" color-interpolation-filters="sRGB">
<feFlood flood-opacity="0" result="BackgroundImageFix"/>
<feColorMatrix in="SourceAlpha" type="matrix" values="0 0 0 0 0 0 0 0 0 0 0 0 0 0 0 0 0 0 127 0" result="hardAlpha"/>
<feOffset dy="1"/>
<feGaussianBlur stdDeviation="2"/>
<feComposite in2="hardAlpha" operator="out"/>
<feColorMatrix type="matrix" values="0 0 0 0 0.0470588 0 0 0 0 0.0470588 0 0 0 0 0.0509804 0 0 0 0.05 0"/>
<feBlend mode="normal" in2="BackgroundImageFix" result="effect1_dropShadow_494_20400"/>
<feColorMatrix in="SourceAlpha" type="matrix" values="0 0 0 0 0 0 0 0 0 0 0 0 0 0 0 0 0 0 127 0" result="hardAlpha"/>
<feOffset dy="1"/>
<feGaussianBlur stdDeviation="2"/>
<feComposite in2="hardAlpha" operator="out"/>
<feColorMatrix type="matrix" values="0 0 0 0 0.0470588 0 0 0 0 0.0470588 0 0 0 0 0.0509804 0 0 0 0.1 0"/>
<feBlend mode="normal" in2="effect1_dropShadow_494_20400" result="effect2_dropShadow_494_20400"/>
<feBlend mode="normal" in="SourceGraphic" in2="effect2_dropShadow_494_20400" result="shape"/>
</filter>
</defs>
</svg>
