<svg width="21" height="20" viewBox="0 0 21 20" fill="none" xmlns="http://www.w3.org/2000/svg">
<g clip-path="url(#clip0_7059_3901)">
<path d="M10.0781 0C4.55532 0 0.078125 4.4772 0.078125 10C0.078125 14.6896 3.30693 18.6248 7.66252 19.7056V13.056H5.60052V10H7.66252V8.6832C7.66252 5.2796 9.20292 3.702 12.5445 3.702C13.1781 3.702 14.2713 3.8264 14.7185 3.9504V6.7204C14.4825 6.6956 14.0725 6.6832 13.5633 6.6832C11.9237 6.6832 11.2901 7.3044 11.2901 8.9192V10H14.5565L13.9953 13.056H11.2901V19.9268C16.2417 19.3288 20.0785 15.1128 20.0785 10C20.0781 4.4772 15.6009 0 10.0781 0Z" fill="#767676"/>
</g>
<defs>
<clipPath id="clip0_7059_3901">
<rect width="20" height="20" fill="white" transform="translate(0.078125)"/>
</clipPath>
</defs>
</svg>
