<svg width="60" height="60" viewBox="0 0 60 60" fill="none" xmlns="http://www.w3.org/2000/svg">
<path opacity="0.5" d="M15.6498 53.471H15C12.643 53.471 11.4645 53.471 10.7322 52.7387C10 52.0065 10 50.828 10 48.471V45.6911C10 44.3948 10 43.7467 10.3329 43.1679C10.6659 42.5891 11.1682 42.2969 12.1728 41.7127C18.7864 37.8661 28.1789 35.7008 34.4477 39.4397C34.8689 39.691 35.2476 39.9942 35.5714 40.3578C36.9666 41.925 36.8649 44.2903 35.2569 45.6937C34.9173 45.9901 34.5554 46.2149 34.1909 46.293C34.4904 46.2583 34.7775 46.2185 35.0514 46.1748C37.3299 45.8114 39.2426 44.5938 40.9936 43.2711L45.5115 39.8581C47.1043 38.655 49.4683 38.6547 51.0613 39.8576C52.4955 40.9405 52.934 42.7235 52.0273 44.1769C50.97 45.8717 49.4802 48.0399 48.0498 49.3648C46.6173 50.6915 44.4847 51.876 42.7437 52.7163C40.8151 53.6472 38.6845 54.1836 36.5174 54.5344C32.1221 55.2459 27.5414 55.1373 23.1908 54.2409C20.7313 53.7342 18.177 53.471 15.6498 53.471Z" fill="#B5895C"/>
<path d="M27.1532 8.40838C28.4198 6.13613 29.0531 5 30 5C30.9469 5 31.5802 6.13612 32.8468 8.40837L33.1745 8.99623C33.5345 9.64193 33.7144 9.96479 33.9951 10.1778C34.2757 10.3908 34.6251 10.4699 35.3241 10.628L35.9605 10.772C38.4201 11.3286 39.65 11.6068 39.9426 12.5477C40.2352 13.4886 39.3967 14.4691 37.7199 16.4299L37.2861 16.9372C36.8096 17.4944 36.5713 17.773 36.4641 18.1177C36.357 18.4624 36.393 18.8341 36.465 19.5776L36.5306 20.2544C36.7841 22.8706 36.9109 24.1787 36.1448 24.7602C35.3788 25.3417 34.2273 24.8115 31.9243 23.7512L31.3285 23.4768C30.6741 23.1755 30.3469 23.0248 30 23.0248C29.6531 23.0248 29.3259 23.1755 28.6715 23.4768L28.0757 23.7512C25.7727 24.8115 24.6212 25.3417 23.8551 24.7602C23.0891 24.1787 23.2159 22.8706 23.4694 20.2544L23.535 19.5776C23.607 18.8341 23.643 18.4624 23.5359 18.1177C23.4287 17.773 23.1904 17.4944 22.7139 16.9372L22.2801 16.4299C20.6032 14.4691 19.7648 13.4886 20.0574 12.5477C20.35 11.6068 21.5799 11.3286 24.0395 10.772L24.6759 10.628C25.3748 10.4699 25.7243 10.3908 26.0049 10.1778C26.2856 9.96479 26.4655 9.64194 26.8255 8.99623L27.1532 8.40838Z" fill="#B5895C"/>
<path d="M48.5766 19.2042C49.2099 18.0681 49.5266 17.5 50 17.5C50.4734 17.5 50.7901 18.0681 51.4234 19.2042L51.5873 19.4981C51.7672 19.821 51.8572 19.9824 51.9975 20.0889C52.1378 20.1954 52.3126 20.2349 52.6621 20.314L52.9802 20.386C54.2101 20.6643 54.825 20.8034 54.9713 21.2739C55.1176 21.7443 54.6984 22.2345 53.8599 23.215L53.643 23.4686C53.4048 23.7472 53.2857 23.8865 53.2321 24.0589C53.1785 24.2312 53.1965 24.4171 53.2325 24.7888L53.2653 25.1272C53.3921 26.4353 53.4554 27.0894 53.0724 27.3801C52.6894 27.6709 52.1137 27.4058 50.9622 26.8756L50.6643 26.7384C50.337 26.5878 50.1734 26.5124 50 26.5124C49.8266 26.5124 49.663 26.5878 49.3357 26.7384L49.0378 26.8756C47.8863 27.4058 47.3106 27.6709 46.9276 27.3801C46.5446 27.0894 46.6079 26.4353 46.7347 25.1272L46.7675 24.7888C46.8035 24.4171 46.8215 24.2312 46.7679 24.0589C46.7143 23.8865 46.5952 23.7472 46.357 23.4686L46.14 23.215C45.3016 22.2345 44.8824 21.7443 45.0287 21.2739C45.175 20.8034 45.7899 20.6643 47.0198 20.386L47.3379 20.314C47.6874 20.235 47.8622 20.1954 48.0025 20.0889C48.1428 19.9824 48.2328 19.821 48.4127 19.4981L48.5766 19.2042Z" fill="#B5895C"/>
<path d="M8.57658 19.2042C9.20991 18.0681 9.52657 17.5 10 17.5C10.4734 17.5 10.7901 18.0681 11.4234 19.2042L11.5873 19.4981C11.7672 19.821 11.8572 19.9824 11.9975 20.0889C12.1378 20.1954 12.3126 20.2349 12.6621 20.314L12.9802 20.386C14.2101 20.6643 14.825 20.8034 14.9713 21.2739C15.1176 21.7443 14.6984 22.2345 13.86 23.215L13.643 23.4686C13.4048 23.7472 13.2857 23.8865 13.2321 24.0589C13.1785 24.2312 13.1965 24.4171 13.2325 24.7888L13.2653 25.1272C13.3921 26.4353 13.4554 27.0894 13.0724 27.3801C12.6894 27.6709 12.1137 27.4058 10.9622 26.8756L10.6643 26.7384C10.337 26.5878 10.1734 26.5124 10 26.5124C9.82657 26.5124 9.66296 26.5878 9.33574 26.7384L9.03784 26.8756C7.88634 27.4058 7.31059 27.6709 6.92757 27.3801C6.54456 27.0894 6.60794 26.4353 6.7347 25.1272L6.76749 24.7888C6.80351 24.4171 6.82152 24.2312 6.76793 24.0589C6.71434 23.8865 6.59521 23.7472 6.35696 23.4686L6.14005 23.215C5.30162 22.2345 4.88241 21.7443 5.02871 21.2739C5.17501 20.8034 5.78993 20.6643 7.01977 20.386L7.33794 20.314C7.68743 20.235 7.86217 20.1954 8.00247 20.0889C8.14278 19.9824 8.23276 19.821 8.41273 19.4981L8.57658 19.2042Z" fill="#B5895C"/>
</svg>
