<svg width="20" height="20" viewBox="0 0 20 20" fill="none" xmlns="http://www.w3.org/2000/svg">
<mask id="mask0_503_20610" style="mask-type:alpha" maskUnits="userSpaceOnUse" x="0" y="0" width="20" height="20">
<rect width="20" height="20" fill="#D9D9D9"/>
</mask>
<g mask="url(#mask0_503_20610)">
<path d="M19.1667 4.16667V15.8333C19.1667 16.2917 19.0035 16.684 18.6771 17.0104C18.3507 17.3368 17.9584 17.5 17.5 17.5H15C14.7639 17.5 14.566 17.4201 14.4063 17.2604C14.2466 17.1007 14.1667 16.9028 14.1667 16.6667C14.1667 16.4306 14.2466 16.2326 14.4063 16.0729C14.566 15.9132 14.7639 15.8333 15 15.8333H17.5V4.16667H10V4.58333C10 4.81944 9.92018 5.01736 9.76046 5.17708C9.60074 5.33681 9.40282 5.41667 9.16671 5.41667C8.9306 5.41667 8.73268 5.33681 8.57296 5.17708C8.41324 5.01736 8.33337 4.81944 8.33337 4.58333V4.125C8.33337 3.68056 8.4931 3.29861 8.81254 2.97917C9.13199 2.65972 9.51393 2.5 9.95837 2.5H17.5C17.9584 2.5 18.3507 2.66319 18.6771 2.98958C19.0035 3.31597 19.1667 3.70833 19.1667 4.16667ZM0.833374 10.0208C0.833374 9.74306 0.895874 9.48611 1.02087 9.25C1.14587 9.01389 1.31949 8.81944 1.54171 8.66667L5.70837 5.6875C5.86115 5.57639 6.0174 5.49653 6.17712 5.44792C6.33685 5.39931 6.50004 5.375 6.66671 5.375C6.83337 5.375 6.99657 5.39931 7.15629 5.44792C7.31601 5.49653 7.47226 5.57639 7.62504 5.6875L11.7917 8.66667C12.0139 8.81944 12.1875 9.01389 12.3125 9.25C12.4375 9.48611 12.5 9.74306 12.5 10.0208V15.8333C12.5 16.2917 12.3368 16.684 12.0105 17.0104C11.6841 17.3368 11.2917 17.5 10.8334 17.5H9.16671C8.70837 17.5 8.31601 17.3368 7.98962 17.0104C7.66324 16.684 7.50004 16.2917 7.50004 15.8333V13.3333H5.83337V15.8333C5.83337 16.2917 5.67018 16.684 5.34379 17.0104C5.0174 17.3368 4.62504 17.5 4.16671 17.5H2.50004C2.04171 17.5 1.64935 17.3368 1.32296 17.0104C0.996569 16.684 0.833374 16.2917 0.833374 15.8333V10.0208ZM2.50004 10V15.8333H4.16671V13.3333C4.16671 12.875 4.3299 12.4826 4.65629 12.1562C4.98268 11.8299 5.37504 11.6667 5.83337 11.6667H7.50004C7.95837 11.6667 8.35074 11.8299 8.67712 12.1562C9.00351 12.4826 9.16671 12.875 9.16671 13.3333V15.8333H10.8334V10L6.66671 7.04167L2.50004 10ZM14.5834 7.5H15.4167C15.5278 7.5 15.625 7.45833 15.7084 7.375C15.7917 7.29167 15.8334 7.19444 15.8334 7.08333V6.25C15.8334 6.13889 15.7917 6.04167 15.7084 5.95833C15.625 5.875 15.5278 5.83333 15.4167 5.83333H14.5834C14.4723 5.83333 14.375 5.875 14.2917 5.95833C14.2084 6.04167 14.1667 6.13889 14.1667 6.25V7.08333C14.1667 7.19444 14.2084 7.29167 14.2917 7.375C14.375 7.45833 14.4723 7.5 14.5834 7.5ZM14.5834 10.8333H15.4167C15.5278 10.8333 15.625 10.7917 15.7084 10.7083C15.7917 10.625 15.8334 10.5278 15.8334 10.4167V9.58333C15.8334 9.47222 15.7917 9.375 15.7084 9.29167C15.625 9.20833 15.5278 9.16667 15.4167 9.16667H14.5834C14.4723 9.16667 14.375 9.20833 14.2917 9.29167C14.2084 9.375 14.1667 9.47222 14.1667 9.58333V10.4167C14.1667 10.5278 14.2084 10.625 14.2917 10.7083C14.375 10.7917 14.4723 10.8333 14.5834 10.8333ZM14.5834 14.1667H15.4167C15.5278 14.1667 15.625 14.125 15.7084 14.0417C15.7917 13.9583 15.8334 13.8611 15.8334 13.75V12.9167C15.8334 12.8056 15.7917 12.7083 15.7084 12.625C15.625 12.5417 15.5278 12.5 15.4167 12.5H14.5834C14.4723 12.5 14.375 12.5417 14.2917 12.625C14.2084 12.7083 14.1667 12.8056 14.1667 12.9167V13.75C14.1667 13.8611 14.2084 13.9583 14.2917 14.0417C14.375 14.125 14.4723 14.1667 14.5834 14.1667Z" fill="#B5895C"/>
</g>
</svg>
