<svg width="83" height="19" viewBox="0 0 83 19" fill="none" xmlns="http://www.w3.org/2000/svg">
<path fill-rule="evenodd" clip-rule="evenodd" d="M12.5 4C11.5251 4 10.6433 4.34165 10.0087 4.89288C11.7936 0.990906 17.4868 0 20.1906 0V19H17.7283C12.3113 19 7.87925 13.1944 5.90944 10.5556C4.33359 8.44444 1.31321 7.91667 0 7.91667C0.08696 7.87939 0.206009 7.82288 0.352343 7.75342L0.352354 7.75341C1.58718 7.16728 4.76488 5.65893 7 7C7.51683 7.3101 8.03016 7.72213 8.54962 8.13907C9.50888 8.90902 10.489 9.69574 11.5507 9.88834C11.8526 9.96109 12.171 10 12.5 10C14.433 10 16 8.65685 16 7C16 5.34315 14.433 4 12.5 4ZM72.6907 0H20.1907V19H72.6907C77.9374 19 82.1907 14.7467 82.1907 9.5C82.1907 4.25329 77.9374 0 72.6907 0Z" fill="#FA0518"/>
<path d="M69.8338 14.0001V7.1841H67.1458V5.6001H74.4658V7.1841H71.7778V14.0001H69.8338Z" fill="white"/>
<path d="M58.2241 14L61.9681 5.59999H63.8881L67.6441 14H65.6041L62.5321 6.58399H63.3001L60.2161 14H58.2241ZM60.0961 12.2L60.6121 10.724H64.9321L65.4601 12.2H60.0961ZM62.9281 16.52C62.6961 16.52 62.5001 16.448 62.3401 16.304C62.1801 16.16 62.1001 15.964 62.1001 15.716C62.1001 15.468 62.1801 15.264 62.3401 15.104C62.5001 14.952 62.6961 14.876 62.9281 14.876C63.1601 14.876 63.3561 14.952 63.5161 15.104C63.6761 15.264 63.7561 15.468 63.7561 15.716C63.7561 15.964 63.6761 16.16 63.5161 16.304C63.3561 16.448 63.1601 16.52 62.9281 16.52ZM60.5161 4.91599L62.1001 3.18799H63.7561L65.3401 4.91599H63.9721L62.3161 3.47599H63.5401L61.8841 4.91599H60.5161Z" fill="white"/>
<path d="M50.1523 14.0001V5.6001H54.2563C55.3123 5.6001 56.1043 5.8001 56.6323 6.2001C57.1683 6.6001 57.4363 7.1281 57.4363 7.7841C57.4363 8.2241 57.3283 8.6081 57.1123 8.9361C56.8963 9.2561 56.6003 9.5041 56.2243 9.6801C55.8483 9.8561 55.4163 9.9441 54.9283 9.9441L55.1563 9.4521C55.6843 9.4521 56.1523 9.5401 56.5603 9.7161C56.9683 9.8841 57.2843 10.1361 57.5083 10.4721C57.7403 10.8081 57.8563 11.2201 57.8563 11.7081C57.8563 12.4281 57.5723 12.9921 57.0043 13.4001C56.4363 13.8001 55.6003 14.0001 54.4963 14.0001H50.1523ZM52.0843 12.5361H54.3523C54.8563 12.5361 55.2363 12.4561 55.4923 12.2961C55.7563 12.1281 55.8883 11.8641 55.8883 11.5041C55.8883 11.1521 55.7563 10.8921 55.4923 10.7241C55.2363 10.5481 54.8563 10.4601 54.3523 10.4601H51.9403V9.0441H54.0163C54.4883 9.0441 54.8483 8.9641 55.0963 8.8041C55.3523 8.6361 55.4803 8.3841 55.4803 8.0481C55.4803 7.7201 55.3523 7.4761 55.0963 7.3161C54.8483 7.1481 54.4883 7.0641 54.0163 7.0641H52.0843V12.5361Z" fill="white"/>
<path d="M42.8164 14.0001V5.6001H44.7604V14.0001H42.8164Z" fill="white"/>
<path d="M36.7713 14.144C36.1073 14.144 35.4913 14.036 34.9233 13.82C34.3633 13.604 33.8753 13.3 33.4593 12.908C33.0513 12.516 32.7313 12.056 32.4993 11.528C32.2753 11 32.1633 10.424 32.1633 9.8C32.1633 9.176 32.2753 8.6 32.4993 8.072C32.7313 7.544 33.0553 7.084 33.4713 6.692C33.8873 6.3 34.3753 5.996 34.9353 5.78C35.4953 5.564 36.1033 5.456 36.7593 5.456C37.4233 5.456 38.0313 5.564 38.5833 5.78C39.1433 5.996 39.6273 6.3 40.0353 6.692C40.4513 7.084 40.7753 7.544 41.0073 8.072C41.2393 8.592 41.3553 9.168 41.3553 9.8C41.3553 10.424 41.2393 11.004 41.0073 11.54C40.7753 12.068 40.4513 12.528 40.0353 12.92C39.6273 13.304 39.1433 13.604 38.5833 13.82C38.0313 14.036 37.4273 14.144 36.7713 14.144ZM36.7593 12.488C37.1353 12.488 37.4793 12.424 37.7913 12.296C38.1113 12.168 38.3913 11.984 38.6313 11.744C38.8713 11.504 39.0553 11.22 39.1833 10.892C39.3193 10.564 39.3873 10.2 39.3873 9.8C39.3873 9.4 39.3193 9.036 39.1833 8.708C39.0553 8.38 38.8713 8.096 38.6313 7.856C38.3993 7.616 38.1233 7.432 37.8033 7.304C37.4833 7.176 37.1353 7.112 36.7593 7.112C36.3833 7.112 36.0353 7.176 35.7153 7.304C35.4033 7.432 35.1273 7.616 34.8873 7.856C34.6473 8.096 34.4593 8.38 34.3233 8.708C34.1953 9.036 34.1313 9.4 34.1313 9.8C34.1313 10.192 34.1953 10.556 34.3233 10.892C34.4593 11.22 34.6433 11.504 34.8753 11.744C35.1153 11.984 35.3953 12.168 35.7153 12.296C36.0353 12.424 36.3833 12.488 36.7593 12.488ZM34.3473 4.916L35.9433 3.548H37.5753L39.1713 4.916H37.7913L36.1713 3.836H37.3473L35.7273 4.916H34.3473ZM38.8953 3.992L38.4393 3.548C38.5993 3.468 38.7113 3.384 38.7753 3.296C38.8473 3.208 38.8833 3.124 38.8833 3.044C38.8833 2.94 38.8433 2.856 38.7633 2.792C38.6913 2.728 38.5953 2.696 38.4753 2.696C38.3073 2.696 38.1313 2.744 37.9473 2.84L37.6353 2.264C37.7713 2.176 37.9273 2.112 38.1033 2.072C38.2793 2.024 38.4553 2 38.6313 2C38.9673 2 39.2353 2.088 39.4353 2.264C39.6353 2.432 39.7353 2.66 39.7353 2.948C39.7353 3.188 39.6553 3.4 39.4953 3.584C39.3353 3.768 39.1353 3.904 38.8953 3.992Z" fill="white"/>
<path d="M23 14.0001V5.6001H24.608L29.564 11.6481H28.784V5.6001H30.704V14.0001H29.108L24.14 7.9521H24.92V14.0001H23Z" fill="white"/>
</svg>
