<svg width="21" height="20" viewBox="0 0 21 20" fill="none" xmlns="http://www.w3.org/2000/svg">
<g clip-path="url(#clip0_7059_3903)">
<path d="M18.5977 0H1.55469C0.738281 0 0.078125 0.644531 0.078125 1.44141V18.5547C0.078125 19.3516 0.738281 20 1.55469 20H18.5977C19.4141 20 20.0781 19.3516 20.0781 18.5586V1.44141C20.0781 0.644531 19.4141 0 18.5977 0ZM6.01172 17.043H3.04297V7.49609H6.01172V17.043ZM4.52734 6.19531C3.57422 6.19531 2.80469 5.42578 2.80469 4.47656C2.80469 3.52734 3.57422 2.75781 4.52734 2.75781C5.47656 2.75781 6.24609 3.52734 6.24609 4.47656C6.24609 5.42188 5.47656 6.19531 4.52734 6.19531ZM17.1211 17.043H14.1562V12.4023C14.1562 11.2969 14.1367 9.87109 12.6133 9.87109C11.0703 9.87109 10.8359 11.0781 10.8359 12.3242V17.043H7.875V7.49609H10.7187V8.80078H10.7578C11.1523 8.05078 12.1211 7.25781 13.5625 7.25781C16.5664 7.25781 17.1211 9.23438 17.1211 11.8047V17.043Z" fill="#767676"/>
</g>
<defs>
<clipPath id="clip0_7059_3903">
<rect width="20" height="20" fill="white" transform="translate(0.078125)"/>
</clipPath>
</defs>
</svg>
