<svg width="21" height="20" viewBox="0 0 21 20" fill="none" xmlns="http://www.w3.org/2000/svg">
<g clip-path="url(#clip0_7059_3907)">
<path d="M10.0781 1.80078C12.75 1.80078 13.0664 1.8125 14.1172 1.85937C15.0938 1.90234 15.6211 2.06641 15.9727 2.20313C16.4375 2.38281 16.7734 2.60156 17.1211 2.94922C17.4727 3.30078 17.6875 3.63281 17.8672 4.09766C18.0039 4.44922 18.168 4.98047 18.2109 5.95312C18.2578 7.00781 18.2695 7.32422 18.2695 9.99219C18.2695 12.6641 18.2578 12.9805 18.2109 14.0313C18.168 15.0078 18.0039 15.5352 17.8672 15.8867C17.6875 16.3516 17.4688 16.6875 17.1211 17.0352C16.7695 17.3867 16.4375 17.6016 15.9727 17.7813C15.6211 17.918 15.0898 18.082 14.1172 18.125C13.0625 18.1719 12.7461 18.1836 10.0781 18.1836C7.40625 18.1836 7.08984 18.1719 6.03906 18.125C5.0625 18.082 4.53516 17.918 4.18359 17.7813C3.71875 17.6016 3.38281 17.3828 3.03516 17.0352C2.68359 16.6836 2.46875 16.3516 2.28906 15.8867C2.15234 15.5352 1.98828 15.0039 1.94531 14.0313C1.89844 12.9766 1.88672 12.6602 1.88672 9.99219C1.88672 7.32031 1.89844 7.00391 1.94531 5.95312C1.98828 4.97656 2.15234 4.44922 2.28906 4.09766C2.46875 3.63281 2.6875 3.29688 3.03516 2.94922C3.38672 2.59766 3.71875 2.38281 4.18359 2.20313C4.53516 2.06641 5.06641 1.90234 6.03906 1.85937C7.08984 1.8125 7.40625 1.80078 10.0781 1.80078ZM10.0781 0C7.36328 0 7.02344 0.0117187 5.95703 0.0585938C4.89453 0.105469 4.16406 0.277344 3.53125 0.523438C2.87109 0.78125 2.3125 1.12109 1.75781 1.67969C1.19922 2.23438 0.859375 2.79297 0.601563 3.44922C0.355469 4.08594 0.183594 4.8125 0.136719 5.875C0.0898438 6.94531 0.078125 7.28516 0.078125 10C0.078125 12.7148 0.0898438 13.0547 0.136719 14.1211C0.183594 15.1836 0.355469 15.9141 0.601563 16.5469C0.859375 17.207 1.19922 17.7656 1.75781 18.3203C2.3125 18.875 2.87109 19.2188 3.52734 19.4727C4.16406 19.7188 4.89063 19.8906 5.95313 19.9375C7.01953 19.9844 7.35938 19.9961 10.0742 19.9961C12.7891 19.9961 13.1289 19.9844 14.1953 19.9375C15.2578 19.8906 15.9883 19.7188 16.6211 19.4727C17.2773 19.2188 17.8359 18.875 18.3906 18.3203C18.9453 17.7656 19.2891 17.207 19.543 16.5508C19.7891 15.9141 19.9609 15.1875 20.0078 14.125C20.0547 13.0586 20.0664 12.7188 20.0664 10.0039C20.0664 7.28906 20.0547 6.94922 20.0078 5.88281C19.9609 4.82031 19.7891 4.08984 19.543 3.45703C19.2969 2.79297 18.957 2.23438 18.3984 1.67969C17.8438 1.125 17.2852 0.78125 16.6289 0.527344C15.9922 0.28125 15.2656 0.109375 14.2031 0.0625C13.1328 0.0117188 12.793 0 10.0781 0Z" fill="#767676"/>
<path d="M10.0781 4.86328C7.24219 4.86328 4.94141 7.16406 4.94141 10C4.94141 12.8359 7.24219 15.1367 10.0781 15.1367C12.9141 15.1367 15.2148 12.8359 15.2148 10C15.2148 7.16406 12.9141 4.86328 10.0781 4.86328ZM10.0781 13.332C8.23828 13.332 6.74609 11.8398 6.74609 10C6.74609 8.16016 8.23828 6.66797 10.0781 6.66797C11.918 6.66797 13.4102 8.16016 13.4102 10C13.4102 11.8398 11.918 13.332 10.0781 13.332Z" fill="#767676"/>
<path d="M16.6172 4.66016C16.6172 5.32422 16.0781 5.85938 15.418 5.85938C14.7539 5.85938 14.2188 5.32031 14.2188 4.66016C14.2188 3.99609 14.7578 3.46094 15.418 3.46094C16.0781 3.46094 16.6172 4 16.6172 4.66016Z" fill="#767676"/>
</g>
<defs>
<clipPath id="clip0_7059_3907">
<rect width="20" height="20" fill="white" transform="translate(0.078125)"/>
</clipPath>
</defs>
</svg>
