<svg width="16" height="16" viewBox="0 0 16 16" fill="none" xmlns="http://www.w3.org/2000/svg">
<mask id="mask0_494_20384" style="mask-type:alpha" maskUnits="userSpaceOnUse" x="0" y="0" width="16" height="16">
<rect width="16" height="16" fill="#D9D9D9"/>
</mask>
<g mask="url(#mask0_494_20384)">
<path d="M3.99996 15.3331C3.63329 15.3331 3.3194 15.2026 3.05829 14.9414C2.79718 14.6803 2.66663 14.3664 2.66663 13.9998V6.66644C2.66663 6.29977 2.79718 5.98588 3.05829 5.72477C3.3194 5.46366 3.63329 5.33311 3.99996 5.33311H5.33329C5.52218 5.33311 5.68052 5.39699 5.80829 5.52477C5.93607 5.65255 5.99996 5.81088 5.99996 5.99977C5.99996 6.18866 5.93607 6.34699 5.80829 6.47477C5.68052 6.60255 5.52218 6.66644 5.33329 6.66644H3.99996V13.9998H12V6.66644H10.6666C10.4777 6.66644 10.3194 6.60255 10.1916 6.47477C10.0638 6.34699 9.99996 6.18866 9.99996 5.99977C9.99996 5.81088 10.0638 5.65255 10.1916 5.52477C10.3194 5.39699 10.4777 5.33311 10.6666 5.33311H12C12.3666 5.33311 12.6805 5.46366 12.9416 5.72477C13.2027 5.98588 13.3333 6.29977 13.3333 6.66644V13.9998C13.3333 14.3664 13.2027 14.6803 12.9416 14.9414C12.6805 15.2026 12.3666 15.3331 12 15.3331H3.99996ZM7.33329 3.21644L6.73329 3.81644C6.59996 3.94977 6.4444 4.01366 6.26663 4.00811C6.08885 4.00255 5.93329 3.93311 5.79996 3.79977C5.67774 3.66644 5.61385 3.51088 5.60829 3.33311C5.60274 3.15533 5.66663 2.99977 5.79996 2.86644L7.53329 1.13311C7.66663 0.999772 7.82218 0.933105 7.99996 0.933105C8.17774 0.933105 8.33329 0.999772 8.46663 1.13311L10.2 2.86644C10.3222 2.98866 10.3833 3.14144 10.3833 3.32477C10.3833 3.50811 10.3222 3.66644 10.2 3.79977C10.0666 3.93311 9.90829 3.99977 9.72496 3.99977C9.54163 3.99977 9.38329 3.93311 9.24996 3.79977L8.66663 3.21644V9.99977C8.66663 10.1887 8.60274 10.347 8.47496 10.4748C8.34718 10.6026 8.18885 10.6664 7.99996 10.6664C7.81107 10.6664 7.65274 10.6026 7.52496 10.4748C7.39718 10.347 7.33329 10.1887 7.33329 9.99977V3.21644Z" fill="#1C1B1F"/>
</g>
</svg>
