<svg width="20" height="20" viewBox="0 0 20 20" fill="none" xmlns="http://www.w3.org/2000/svg">
<g id="local_fire_department">
<mask id="mask0_7022_2289" style="mask-type:alpha" maskUnits="userSpaceOnUse" x="0" y="0" width="20" height="20">
<rect id="Bounding box" width="20" height="20" fill="#D9D9D9"/>
</mask>
<g mask="url(#mask0_7022_2289)">
<path id="local_fire_department_2" d="M10 17.9167C8.25639 17.9167 6.77882 17.3109 5.56729 16.0994C4.35576 14.8879 3.75 13.4103 3.75 11.6667C3.75 10.2575 4.15653 8.88813 4.96958 7.55855C5.78264 6.22897 6.8975 5.05987 8.31417 4.05126C8.58222 3.85362 8.86347 3.8339 9.15792 3.99209C9.45222 4.15015 9.59937 4.39265 9.59937 4.71959V5.42626C9.59937 5.93584 9.8066 6.38112 10.221 6.76209C10.6356 7.14292 11.1244 7.33334 11.6875 7.33334C11.9343 7.33334 12.1733 7.28529 12.4046 7.18917C12.636 7.09306 12.8483 6.95577 13.0417 6.7773C13.1528 6.66508 13.2844 6.59966 13.4367 6.58105C13.5889 6.5623 13.7307 6.60313 13.8621 6.70355C14.6089 7.29119 15.1936 8.02167 15.6163 8.89501C16.0388 9.76848 16.25 10.6924 16.25 11.6667C16.25 13.4103 15.6442 14.8879 14.4327 16.0994C13.2212 17.3109 11.7436 17.9167 10 17.9167ZM5 11.6667C5 12.5064 5.20063 13.2879 5.60188 14.0113C6.00299 14.7346 6.55451 15.3179 7.25646 15.7613C7.19451 15.6438 7.15014 15.5265 7.12333 15.4094C7.09667 15.2924 7.08333 15.1699 7.08333 15.0417C7.08333 14.656 7.15736 14.2927 7.30542 13.9519C7.45333 13.611 7.66563 13.3023 7.94229 13.0256L10 11.0017L12.0656 13.0256C12.3424 13.3023 12.5535 13.611 12.6987 13.9519C12.844 14.2927 12.9167 14.656 12.9167 15.0417C12.9167 15.1699 12.9033 15.2924 12.8767 15.4094C12.8499 15.5265 12.8055 15.6438 12.7435 15.7613C13.4455 15.3179 13.997 14.7346 14.3981 14.0113C14.7994 13.2879 15 12.5064 15 11.6667C15 10.9722 14.8715 10.316 14.6146 9.69792C14.3576 9.07987 13.9861 8.52779 13.5 8.04167C13.2222 8.22223 12.9306 8.35765 12.625 8.44792C12.3194 8.5382 12.0069 8.58334 11.6875 8.58334C10.8211 8.58334 10.0719 8.29862 9.44 7.72917C8.80806 7.15973 8.44611 6.45299 8.35417 5.60896C7.27083 6.52035 6.44097 7.49737 5.86458 8.54001C5.28819 9.58278 5 10.625 5 11.6667ZM10 12.75L8.8125 13.9167C8.65972 14.0695 8.54167 14.2431 8.45833 14.4375C8.375 14.632 8.33333 14.8333 8.33333 15.0417C8.33333 15.4861 8.49653 15.8681 8.82292 16.1875C9.14931 16.507 9.54167 16.6667 10 16.6667C10.4583 16.6667 10.8507 16.507 11.1771 16.1875C11.5035 15.8681 11.6667 15.4861 11.6667 15.0417C11.6667 14.8195 11.625 14.6146 11.5417 14.4271C11.4583 14.2396 11.3403 14.0695 11.1875 13.9167L10 12.75Z" fill="#EC221F"/>
</g>
</g>
</svg>
