<svg width="20" height="20" viewBox="0 0 20 20" fill="none" xmlns="http://www.w3.org/2000/svg">
<g id="location_on">
<mask id="mask0_7022_2309" style="mask-type:alpha" maskUnits="userSpaceOnUse" x="0" y="0" width="20" height="20">
<rect id="Bounding box" width="20" height="20" fill="#D9D9D9"/>
</mask>
<g mask="url(#mask0_7022_2309)">
<path id="location_on_2" d="M10.0004 10C10.4587 10 10.8511 9.83682 11.1775 9.51043C11.5039 9.18404 11.6671 8.79168 11.6671 8.33335C11.6671 7.87501 11.5039 7.48265 11.1775 7.15626C10.8511 6.82987 10.4587 6.66668 10.0004 6.66668C9.54207 6.66668 9.14971 6.82987 8.82332 7.15626C8.49693 7.48265 8.33374 7.87501 8.33374 8.33335C8.33374 8.79168 8.49693 9.18404 8.82332 9.51043C9.14971 9.83682 9.54207 10 10.0004 10ZM10.0004 16.125C11.6949 14.5695 12.9518 13.1563 13.7712 11.8854C14.5907 10.6146 15.0004 9.48612 15.0004 8.50001C15.0004 6.98612 14.5178 5.74654 13.5525 4.78126C12.5872 3.81598 11.4032 3.33335 10.0004 3.33335C8.59763 3.33335 7.4136 3.81598 6.44832 4.78126C5.48305 5.74654 5.00041 6.98612 5.00041 8.50001C5.00041 9.48612 5.41013 10.6146 6.22957 11.8854C7.04902 13.1563 8.30596 14.5695 10.0004 16.125ZM10.0004 18.3333C7.7643 16.4306 6.09416 14.6632 4.98999 13.0313C3.88582 11.3993 3.33374 9.8889 3.33374 8.50001C3.33374 6.41668 4.00388 4.75696 5.34416 3.52085C6.68444 2.28474 8.23652 1.66668 10.0004 1.66668C11.7643 1.66668 13.3164 2.28474 14.6567 3.52085C15.9969 4.75696 16.6671 6.41668 16.6671 8.50001C16.6671 9.8889 16.115 11.3993 15.0108 13.0313C13.9067 14.6632 12.2365 16.4306 10.0004 18.3333Z" fill="#B3B3B3"/>
</g>
</g>
</svg>
