<svg width="16" height="20" viewBox="0 0 16 20" fill="none" xmlns="http://www.w3.org/2000/svg">
<path d="M8.00098 10C8.55098 10 9.02181 9.80417 9.41348 9.4125C9.80514 9.02083 10.001 8.55 10.001 8C10.001 7.45 9.80514 6.97917 9.41348 6.5875C9.02181 6.19583 8.55098 6 8.00098 6C7.45098 6 6.98014 6.19583 6.58848 6.5875C6.19681 6.97917 6.00098 7.45 6.00098 8C6.00098 8.55 6.19681 9.02083 6.58848 9.4125C6.98014 9.80417 7.45098 10 8.00098 10ZM8.00098 17.35C10.0343 15.4833 11.5426 13.7875 12.526 12.2625C13.5093 10.7375 14.001 9.38333 14.001 8.2C14.001 6.38333 13.4218 4.89583 12.2635 3.7375C11.1051 2.57917 9.68431 2 8.00098 2C6.31764 2 4.89681 2.57917 3.73848 3.7375C2.58014 4.89583 2.00098 6.38333 2.00098 8.2C2.00098 9.38333 2.49264 10.7375 3.47598 12.2625C4.45931 13.7875 5.96764 15.4833 8.00098 17.35ZM8.00098 20C5.31764 17.7167 3.31348 15.5958 1.98848 13.6375C0.663477 11.6792 0.000976562 9.86667 0.000976562 8.2C0.000976562 5.7 0.805143 3.70833 2.41348 2.225C4.02181 0.741667 5.88431 0 8.00098 0C10.1176 0 11.9801 0.741667 13.5885 2.225C15.1968 3.70833 16.001 5.7 16.001 8.2C16.001 9.86667 15.3385 11.6792 14.0135 13.6375C12.6885 15.5958 10.6843 17.7167 8.00098 20Z" fill="#CDB092"/>
</svg>
