<svg width="20" height="20" viewBox="0 0 20 20" fill="none" xmlns="http://www.w3.org/2000/svg">
<mask id="mask0_503_20626" style="mask-type:alpha" maskUnits="userSpaceOnUse" x="0" y="0" width="20" height="20">
<rect width="20" height="20" fill="#D9D9D9"/>
</mask>
<g mask="url(#mask0_503_20626)">
<path d="M3.33333 17.5C3.09722 17.5 2.89931 17.4201 2.73958 17.2604C2.57986 17.1007 2.5 16.9028 2.5 16.6667C2.5 16.4306 2.57986 16.2326 2.73958 16.0729C2.89931 15.9132 3.09722 15.8333 3.33333 15.8333H4.16667V3.33333C4.16667 3.09722 4.24653 2.89931 4.40625 2.73958C4.56597 2.57986 4.76389 2.5 5 2.5H11.6667C11.9028 2.5 12.1007 2.57986 12.2604 2.73958C12.4201 2.89931 12.5 3.09722 12.5 3.33333H15C15.2361 3.33333 15.434 3.41319 15.5938 3.57292C15.7535 3.73264 15.8333 3.93056 15.8333 4.16667V15.8333H16.6667C16.9028 15.8333 17.1007 15.9132 17.2604 16.0729C17.4201 16.2326 17.5 16.4306 17.5 16.6667C17.5 16.9028 17.4201 17.1007 17.2604 17.2604C17.1007 17.4201 16.9028 17.5 16.6667 17.5H15C14.7639 17.5 14.566 17.4201 14.4062 17.2604C14.2465 17.1007 14.1667 16.9028 14.1667 16.6667V5H12.5V16.6667C12.5 16.9028 12.4201 17.1007 12.2604 17.2604C12.1007 17.4201 11.9028 17.5 11.6667 17.5H3.33333ZM10 10C10 9.76389 9.92014 9.56597 9.76042 9.40625C9.60069 9.24653 9.40278 9.16667 9.16667 9.16667C8.93056 9.16667 8.73264 9.24653 8.57292 9.40625C8.41319 9.56597 8.33333 9.76389 8.33333 10C8.33333 10.2361 8.41319 10.434 8.57292 10.5938C8.73264 10.7535 8.93056 10.8333 9.16667 10.8333C9.40278 10.8333 9.60069 10.7535 9.76042 10.5938C9.92014 10.434 10 10.2361 10 10ZM5.83333 15.8333H10.8333V4.16667H5.83333V15.8333Z" fill="#B5895C"/>
</g>
</svg>
