<svg width="20" height="20" viewBox="0 0 20 20" fill="none" xmlns="http://www.w3.org/2000/svg">
<mask id="mask0_503_20594" style="mask-type:alpha" maskUnits="userSpaceOnUse" x="0" y="0" width="20" height="20">
<rect width="20" height="20" fill="#D9D9D9"/>
</mask>
<g mask="url(#mask0_503_20594)">
<path d="M9.99996 18.3333C8.84718 18.3333 7.76385 18.1145 6.74996 17.677C5.73607 17.2395 4.85413 16.6458 4.10413 15.8958C3.35413 15.1458 2.76038 14.2638 2.32288 13.25C1.88538 12.2361 1.66663 11.1527 1.66663 9.99996C1.66663 8.84718 1.88538 7.76385 2.32288 6.74996C2.76038 5.73607 3.35413 4.85413 4.10413 4.10413C4.85413 3.35413 5.73607 2.76038 6.74996 2.32288C7.76385 1.88538 8.84718 1.66663 9.99996 1.66663C11.1527 1.66663 12.2361 1.88538 13.25 2.32288C14.2638 2.76038 15.1458 3.35413 15.8958 4.10413C16.6458 4.85413 17.2395 5.73607 17.677 6.74996C18.1145 7.76385 18.3333 8.84718 18.3333 9.99996C18.3333 11.1527 18.1145 12.2361 17.677 13.25C17.2395 14.2638 16.6458 15.1458 15.8958 15.8958C15.1458 16.6458 14.2638 17.2395 13.25 17.677C12.2361 18.1145 11.1527 18.3333 9.99996 18.3333ZM9.99996 16.6666C11.8611 16.6666 13.4375 16.0208 14.7291 14.7291C16.0208 13.4375 16.6666 11.8611 16.6666 9.99996C16.6666 8.13885 16.0208 6.56246 14.7291 5.27079C13.4375 3.97913 11.8611 3.33329 9.99996 3.33329C8.13885 3.33329 6.56246 3.97913 5.27079 5.27079C3.97913 6.56246 3.33329 8.13885 3.33329 9.99996C3.33329 11.8611 3.97913 13.4375 5.27079 14.7291C6.56246 16.0208 8.13885 16.6666 9.99996 16.6666ZM9.97913 15.8333C10.1736 15.8333 10.3437 15.7604 10.4895 15.6145C10.6354 15.4687 10.7083 15.2986 10.7083 15.1041V14.7916C11.4027 14.6666 12 14.3958 12.5 13.9791C13 13.5625 13.25 12.9444 13.25 12.125C13.25 11.5416 13.0833 11.0069 12.75 10.5208C12.4166 10.0347 11.75 9.61107 10.75 9.24996C9.91663 8.97218 9.34024 8.72913 9.02079 8.52079C8.70135 8.31246 8.54163 8.02774 8.54163 7.66663C8.54163 7.30551 8.6701 7.02079 8.92704 6.81246C9.18399 6.60413 9.55551 6.49996 10.0416 6.49996C10.3194 6.49996 10.5625 6.54857 10.7708 6.64579C10.9791 6.74301 11.1527 6.87496 11.2916 7.04163C11.4305 7.20829 11.5868 7.32288 11.7604 7.38538C11.934 7.44788 12.0972 7.4444 12.25 7.37496C12.4583 7.29163 12.6007 7.14926 12.677 6.94788C12.7534 6.74649 12.7361 6.56246 12.625 6.39579C12.4027 6.07635 12.1284 5.80551 11.802 5.58329C11.4757 5.36107 11.125 5.23607 10.75 5.20829V4.89579C10.75 4.70135 10.677 4.53121 10.5312 4.38538C10.3854 4.23954 10.2152 4.16663 10.0208 4.16663C9.82635 4.16663 9.65621 4.23954 9.51038 4.38538C9.36454 4.53121 9.29163 4.70135 9.29163 4.89579V5.20829C8.59718 5.36107 8.05551 5.66663 7.66663 6.12496C7.27774 6.58329 7.08329 7.09718 7.08329 7.66663C7.08329 8.3194 7.27426 8.84718 7.65621 9.24996C8.03815 9.65274 8.63885 9.99996 9.45829 10.2916C10.3333 10.6111 10.9409 10.8958 11.2812 11.1458C11.6215 11.3958 11.7916 11.7222 11.7916 12.125C11.7916 12.5833 11.6284 12.9201 11.302 13.1354C10.9757 13.3507 10.5833 13.4583 10.125 13.4583C9.76385 13.4583 9.43746 13.3715 9.14579 13.1979C8.85413 13.0243 8.61107 12.7638 8.41663 12.4166C8.30551 12.2222 8.15968 12.0902 7.97913 12.0208C7.79857 11.9513 7.61801 11.9513 7.43746 12.0208C7.24301 12.0902 7.10065 12.2222 7.01038 12.4166C6.9201 12.6111 6.91663 12.7986 6.99996 12.9791C7.22218 13.4513 7.52079 13.8368 7.89579 14.1354C8.27079 14.434 8.72218 14.6388 9.24996 14.75V15.1041C9.24996 15.2986 9.32288 15.4687 9.46871 15.6145C9.61454 15.7604 9.78468 15.8333 9.97913 15.8333Z" fill="#B5895C"/>
</g>
</svg>
