<svg width="24" height="24" viewBox="0 0 24 24" fill="none" xmlns="http://www.w3.org/2000/svg">
<mask id="mask0_225_4853" style="mask-type:alpha" maskUnits="userSpaceOnUse" x="0" y="0" width="24" height="24">
<rect width="24" height="24" fill="#D9D9D9"/>
</mask>
<g mask="url(#mask0_225_4853)">
<path d="M20 12C19.7333 12 19.4958 11.9042 19.2875 11.7125C19.0792 11.5208 18.9583 11.2833 18.925 11C18.7083 9.45 18.0542 8.12917 16.9625 7.0375C15.8708 5.94583 14.55 5.29167 13 5.075C12.7167 5.04167 12.4792 4.925 12.2875 4.725C12.0958 4.525 12 4.28333 12 4C12 3.71667 12.1 3.47917 12.3 3.2875C12.5 3.09583 12.7333 3.01667 13 3.05C15.1 3.28333 16.8917 4.14167 18.375 5.625C19.8583 7.10833 20.7167 8.9 20.95 11C20.9833 11.2667 20.9042 11.5 20.7125 11.7C20.5208 11.9 20.2833 12 20 12ZM15.825 12C15.6083 12 15.4167 11.925 15.25 11.775C15.0833 11.625 14.9583 11.425 14.875 11.175C14.7417 10.6917 14.4875 10.2625 14.1125 9.8875C13.7375 9.5125 13.3083 9.25833 12.825 9.125C12.575 9.04167 12.375 8.91667 12.225 8.75C12.075 8.58333 12 8.38333 12 8.15C12 7.81667 12.1167 7.54583 12.35 7.3375C12.5833 7.12917 12.8417 7.05833 13.125 7.125C14.0583 7.34167 14.8625 7.7875 15.5375 8.4625C16.2125 9.1375 16.6583 9.94167 16.875 10.875C16.9417 11.1583 16.8667 11.4167 16.65 11.65C16.4333 11.8833 16.1583 12 15.825 12ZM19.95 21C17.8667 21 15.8083 20.5458 13.775 19.6375C11.7417 18.7292 9.89167 17.4417 8.225 15.775C6.55833 14.1083 5.27083 12.2583 4.3625 10.225C3.45417 8.19167 3 6.13333 3 4.05C3 3.75 3.1 3.5 3.3 3.3C3.5 3.1 3.75 3 4.05 3H8.1C8.33333 3 8.54167 3.07917 8.725 3.2375C8.90833 3.39583 9.01667 3.58333 9.05 3.8L9.7 7.3C9.73333 7.56667 9.725 7.79167 9.675 7.975C9.625 8.15833 9.53333 8.31667 9.4 8.45L6.975 10.9C7.30833 11.5167 7.70417 12.1125 8.1625 12.6875C8.62083 13.2625 9.125 13.8167 9.675 14.35C10.1917 14.8667 10.7333 15.3458 11.3 15.7875C11.8667 16.2292 12.4667 16.6333 13.1 17L15.45 14.65C15.6 14.5 15.7958 14.3875 16.0375 14.3125C16.2792 14.2375 16.5167 14.2167 16.75 14.25L20.2 14.95C20.4333 15.0167 20.625 15.1375 20.775 15.3125C20.925 15.4875 21 15.6833 21 15.9V19.95C21 20.25 20.9 20.5 20.7 20.7C20.5 20.9 20.25 21 19.95 21ZM6.025 9L7.675 7.35L7.25 5H5.025C5.10833 5.68333 5.225 6.35833 5.375 7.025C5.525 7.69167 5.74167 8.35 6.025 9ZM14.975 17.95C15.625 18.2333 16.2875 18.4583 16.9625 18.625C17.6375 18.7917 18.3167 18.9 19 18.95V16.75L16.65 16.275L14.975 17.95Z" fill="#CDB092"/>
</g>
</svg>
