<svg width="48" height="48" viewBox="0 0 48 48" fill="none" xmlns="http://www.w3.org/2000/svg">
<path d="M10.2936 8.55151L10.3399 10.7548C10.3445 10.9747 10.4517 11.1797 10.6296 11.3089C10.7511 11.3972 10.8962 11.4432 11.0429 11.4432C11.111 11.4432 11.1794 11.4334 11.246 11.4132L13.3568 10.7761L15.4676 11.4132C15.678 11.4768 15.9063 11.4384 16.084 11.309C16.2618 11.1797 16.3691 10.9748 16.3737 10.7549L16.4199 8.5516L17.6772 6.73969C17.8024 6.55913 17.8361 6.33038 17.7681 6.12132C17.7002 5.91226 17.5383 5.74707 17.3307 5.67479L15.2493 4.95019L13.917 3.19444C13.784 3.01932 13.5768 2.91638 13.3568 2.91638C13.1369 2.91638 12.9297 3.01932 12.7968 3.19444L11.4642 4.9501L9.38285 5.67469C9.17528 5.74698 9.01347 5.91216 8.94541 6.12123C8.87735 6.33029 8.9111 6.55904 9.03635 6.7396L10.2936 8.55151ZM12.1271 6.20841C12.2579 6.16294 12.3723 6.07979 12.456 5.96944L13.3568 4.78257L14.2575 5.96944C14.3413 6.07979 14.4557 6.16285 14.5864 6.20841L15.9941 6.69854L15.1437 7.92404C15.0648 8.03757 15.0213 8.17191 15.0184 8.3101L14.9872 9.79932L13.56 9.36854C13.4276 9.32841 13.286 9.32841 13.1537 9.36854L11.7264 9.79932L11.6951 8.3101C11.6923 8.17182 11.6487 8.03757 11.5698 7.92404L10.7194 6.69854L12.1271 6.20841Z" fill="white"/>
<path d="M20.9382 5.63269L20.9845 7.83572C20.9891 8.05547 21.0961 8.26031 21.2739 8.38959C21.4517 8.51897 21.6797 8.5575 21.8899 8.49431L24.0013 7.85944L26.1126 8.49431C26.1791 8.51428 26.2473 8.52403 26.3151 8.52403C26.4619 8.52403 26.6071 8.478 26.7287 8.3895C26.9064 8.26022 27.0135 8.05538 27.0181 7.83563L27.0644 5.63259L28.3214 3.82341C28.4468 3.64294 28.4806 3.41428 28.4128 3.20522C28.345 2.99616 28.1834 2.83087 27.9759 2.75841L25.8938 2.031L24.5611 0.277687C24.4282 0.102844 24.2212 9.375e-05 24.0016 0H24.0013C23.7817 0 23.5748 0.102563 23.4419 0.277219L22.1063 2.03119L20.0265 2.75869C19.819 2.83116 19.6575 2.99644 19.5897 3.2055C19.5219 3.41447 19.5558 3.64322 19.6812 3.82359L20.9382 5.63269ZM22.7699 3.28884C22.9 3.24347 23.0138 3.16078 23.0972 3.05119L24.0008 1.8645L24.9024 3.05063C24.9859 3.16059 25.0999 3.24347 25.2302 3.28894L26.6386 3.78094L25.7884 5.00456C25.7094 5.11819 25.6657 5.25262 25.6629 5.391L25.6316 6.88125L24.2038 6.45187C24.1377 6.432 24.0694 6.42216 24.0013 6.42216C23.9331 6.42216 23.8649 6.432 23.7988 6.45187L22.3711 6.88125L22.3397 5.391C22.3369 5.25253 22.2932 5.11819 22.2142 5.00456L21.3639 3.78066L22.7699 3.28884Z" fill="white"/>
<path d="M31.5803 8.55148L31.629 10.7555C31.6339 10.9753 31.7411 11.18 31.919 11.3091C32.0969 11.4383 32.325 11.4767 32.5351 11.4131L34.6458 10.7761L36.7536 11.4131C36.8204 11.4333 36.8889 11.4431 36.9571 11.4431C37.1036 11.4431 37.2485 11.3973 37.37 11.309C37.5478 11.18 37.6551 10.9751 37.66 10.7554L37.7087 8.55176L38.9663 6.73957C39.0916 6.55892 39.1252 6.33017 39.0573 6.1211C38.9893 5.91204 38.8275 5.74685 38.6198 5.67457L36.5385 4.94998L35.2059 3.19432C35.0731 3.01929 34.866 2.91635 34.6461 2.91626H34.6459C34.4262 2.91626 34.2191 3.01901 34.0861 3.19385L32.7509 4.94988L30.6716 5.67457C30.4642 5.74685 30.3024 5.91185 30.2346 6.12082C30.1665 6.3297 30.2 6.55835 30.325 6.73892L31.5803 8.55148ZM33.4137 6.20829C33.5442 6.16282 33.6583 6.07995 33.742 5.96988L34.6453 4.78188L35.5466 5.96942C35.6303 6.07976 35.7447 6.16282 35.8755 6.20838L37.2831 6.69851L36.4326 7.92392C36.354 8.03735 36.3104 8.17142 36.3074 8.30932L36.2745 9.79929L34.8492 9.36851C34.7166 9.32838 34.5751 9.32829 34.4426 9.36851L33.0144 9.79957L32.9815 8.30932C32.9785 8.17151 32.935 8.03773 32.8566 7.92448L32.0074 6.69851L33.4137 6.20829Z" fill="white"/>
<path d="M33.8407 19.9456C33.8407 17.3172 32.8168 14.8464 30.9577 12.9888C27.1227 9.15365 20.8803 9.15365 17.0422 12.9888C13.2073 16.8238 13.2072 23.0663 17.0424 26.9047C18.9614 28.8222 21.4813 29.781 24.001 29.781C26.5207 29.781 29.0402 28.8221 30.9577 26.9045C32.8169 25.0452 33.8407 22.5738 33.8407 19.9456ZM18.0365 13.9833C19.6815 12.3395 21.841 11.5178 24.0009 11.5178C26.1604 11.5178 28.3201 12.3398 29.9635 13.9833C31.557 15.5755 32.4345 17.693 32.4345 19.9456C32.4345 22.0776 31.6474 24.0885 30.2121 25.6488C29.8367 24.0599 28.8582 22.6596 27.4768 21.7581C28.0671 21.0067 28.4205 20.0609 28.4205 19.0335C28.4205 16.5966 26.438 14.6141 24.0012 14.6141C21.5644 14.6141 19.582 16.5966 19.582 19.0335C19.582 20.061 19.9354 21.0068 20.5257 21.7582C19.1438 22.66 18.1652 24.0609 17.79 25.6505C14.7533 22.3447 14.8346 17.1852 18.0365 13.9833ZM20.9884 19.0335C20.9884 17.3721 22.3399 16.0204 24.0013 16.0204C25.6627 16.0204 27.0143 17.3721 27.0143 19.0335C27.0143 20.6949 25.6627 22.0466 24.0013 22.0466C22.3399 22.0466 20.9884 20.6949 20.9884 19.0335ZM19.0383 26.7657C19.1538 25.0837 20.1267 23.5648 21.6091 22.7465C22.2992 23.1926 23.1201 23.4529 24.0013 23.4529C24.8824 23.4529 25.7034 23.1926 26.3935 22.7465C27.8754 23.5646 28.8483 25.0829 28.9643 26.7643C26.0192 28.9111 21.9854 28.9116 19.0383 26.7657Z" fill="white"/>
<path d="M46.7532 15.3385C46.2674 14.7867 45.5972 14.4572 44.8659 14.4104C44.1352 14.3628 43.4293 14.6057 42.8772 15.0925C42.5192 15.4079 42.2554 15.8011 42.1011 16.2377C41.9779 16.2124 41.8526 16.1945 41.7257 16.1859C40.9964 16.1385 40.2888 16.381 39.736 16.8675C39.1832 17.3538 38.8532 18.0237 38.8063 18.7555L38.7262 20.0447L38.3532 25.9153C38.1626 26.0144 37.9762 26.1316 37.7964 26.2676C37.7873 26.2744 37.7785 26.2815 37.7697 26.2888L32.8729 30.3781C30.7185 32.1756 30.5012 33.7422 30.3031 36.3566L29.9923 40.4757H29.2262C28.3548 40.4757 27.646 41.1858 27.646 42.0586V46.42C27.646 47.2913 28.3549 48.0001 29.2262 48.0001H33.7339C34.1223 48.0001 34.4371 47.6854 34.4371 47.297C34.4371 46.9086 34.1223 46.5939 33.7339 46.5939H29.2262C29.1318 46.5939 29.0522 46.5142 29.0522 46.42V42.0586C29.0522 41.9629 29.1319 41.882 29.2262 41.882H41.494C41.5883 41.882 41.6679 41.9628 41.6679 42.0586V46.42C41.6679 46.5143 41.5882 46.5939 41.494 46.5939H36.9889C36.6005 46.5939 36.2858 46.9086 36.2858 47.297C36.2858 47.6854 36.6005 48.0001 36.9889 48.0001H41.4941C42.3654 48.0001 43.0742 47.2912 43.0742 46.42V42.0586C43.0742 41.1858 42.3653 40.4757 41.4941 40.4757H41.0577C44.6326 36.7557 46.4566 32.7157 46.765 27.8834L47.4341 17.3271C47.4809 16.5965 47.2391 15.8904 46.7532 15.3385ZM40.1298 20.1327L40.2098 18.8439C40.2326 18.4885 40.3943 18.1615 40.665 17.9232C40.9357 17.685 41.2805 17.566 41.6328 17.5891C41.7269 17.5956 41.8184 17.6135 41.9073 17.638L41.3798 25.9368C41.2032 25.8312 41.0135 25.7429 40.8123 25.6764C40.4797 25.5663 40.1342 25.5192 39.7869 25.5302L40.1298 20.1327ZM46.0306 17.2375L45.3615 27.7941C45.0486 32.6942 43.0424 36.7304 39.0564 40.4757H31.4024L31.7052 36.4628C31.8893 34.0353 32.0435 32.9013 33.774 31.4576L38.6572 27.3797C39.4116 26.816 40.0538 26.9066 40.3704 27.0113C40.7959 27.1521 41.1191 27.4724 41.235 27.8687C41.394 28.411 41.1638 29.0263 40.5861 29.6022C40.205 29.9833 39.6108 30.6013 38.9818 31.2556C38.1282 32.1435 37.1605 33.1497 36.6907 33.5968C36.4094 33.8644 36.3983 34.3096 36.666 34.591C36.9335 34.8722 37.3787 34.8834 37.6601 34.6157C38.1527 34.1471 39.0895 33.1727 39.9955 32.2304C40.6197 31.5813 41.2092 30.9681 41.5798 30.5975C42.4088 29.7711 42.792 28.7929 42.6665 27.8605L43.3525 17.0685C43.3753 16.7126 43.5367 16.3855 43.8069 16.1475C44.0768 15.9097 44.4199 15.7911 44.776 15.8138C45.1326 15.8366 45.4599 15.9979 45.6977 16.2679C45.9352 16.5374 46.0535 16.8817 46.0306 17.2375Z" fill="white"/>
<path d="M18.7763 40.4756H18.0102L17.6993 36.3564C17.5012 33.7438 17.2842 32.1781 15.1297 30.3782L10.2327 26.2887C10.2239 26.2814 10.215 26.2744 10.2059 26.2674C10.0216 26.1281 9.83537 26.0112 9.6489 25.9132L9.19337 18.7539C9.14659 18.0237 8.81706 17.3539 8.26562 16.8678C7.71343 16.3811 7.00637 16.1384 6.27446 16.186C6.14724 16.1947 6.02274 16.2121 5.90087 16.2369C5.74627 15.8005 5.48209 15.4075 5.12359 15.0921C4.57074 14.6057 3.86368 14.3628 3.13393 14.4104C1.62099 14.5074 0.4689 15.8158 0.565743 17.3267L1.23756 27.8833C1.54393 32.715 3.3669 36.7552 6.94215 40.4756H6.50837C5.63706 40.4756 4.92821 41.1857 4.92821 42.0585V46.4199C4.92821 47.2912 5.63715 48 6.50837 48H11.0135C11.4019 48 11.7167 47.6853 11.7167 47.2969C11.7167 46.9085 11.4019 46.5938 11.0135 46.5938H6.50846C6.41415 46.5938 6.33456 46.5141 6.33456 46.4199V42.0585C6.33456 41.9628 6.41424 41.8819 6.50846 41.8819H18.7763C18.8706 41.8819 18.9502 41.9627 18.9502 42.0585V46.4199C18.9502 46.5142 18.8705 46.5938 18.7763 46.5938H14.2711C13.8827 46.5938 13.568 46.9085 13.568 47.2969C13.568 47.6853 13.8827 48 14.2711 48H18.7763C19.6476 48 20.3565 47.2911 20.3565 46.4199V42.0585C20.3566 41.1857 19.6476 40.4756 18.7763 40.4756ZM6.3669 17.5892C6.72165 17.5672 7.06581 17.6849 7.33571 17.9229C7.6059 18.161 7.76734 18.4881 7.79003 18.8436L8.21509 25.5239C7.62812 25.5068 7.07968 25.662 6.62265 25.936L6.09502 17.6373C6.18277 17.6131 6.27306 17.5956 6.3669 17.5892ZM2.64099 27.7942L1.96918 17.2372C1.92193 16.4997 2.48471 15.8612 3.22384 15.8138C3.58037 15.7917 3.92396 15.9096 4.19462 16.1478C4.46527 16.386 4.62699 16.713 4.64968 17.068L4.66037 17.2362C4.66074 17.2438 4.66121 17.2514 4.66177 17.259L5.33499 27.8492C5.21584 28.693 5.4969 29.6744 6.41977 30.5972C6.79927 30.9757 7.40321 31.6034 8.04278 32.2681C8.93443 33.1949 9.85646 34.1532 10.3423 34.6155C10.6237 34.8831 11.0687 34.8721 11.3364 34.5908C11.6041 34.3094 11.593 33.8643 11.3116 33.5966C10.8482 33.1558 9.93718 32.2088 9.05612 31.2931C8.41149 30.6231 7.80259 29.9902 7.41353 29.6021C6.5064 28.695 6.61337 27.8776 7.01584 27.4153C7.48206 26.8795 8.43034 26.6968 9.34524 27.3796L14.2283 31.4574C15.959 32.9031 16.1132 34.0366 16.2972 36.4623L16.6 40.4755H8.94334C4.95699 36.73 2.95159 32.6937 2.64099 27.7942Z" fill="white"/>
</svg>
