<svg width="48" height="48" viewBox="0 0 48 48" fill="none" xmlns="http://www.w3.org/2000/svg">
<g clip-path="url(#clip0_7079_1114)">
<path d="M24.0002 5.52762C24.3893 5.52762 24.7047 5.21225 24.7047 4.82309V0.704653C24.7047 0.315591 24.3893 0.00012207 24.0002 0.00012207C23.611 0.00012207 23.2957 0.315591 23.2957 0.704653V4.82318C23.2957 5.21225 23.611 5.52762 24.0002 5.52762Z" fill="white"/>
<path d="M7.10065 21.0181H2.98212C2.59296 21.0181 2.27759 21.3335 2.27759 21.7227C2.27759 22.1117 2.59296 22.4272 2.98212 22.4272H7.10065C7.48981 22.4272 7.80518 22.1117 7.80518 21.7227C7.80509 21.3336 7.48971 21.0181 7.10065 21.0181Z" fill="white"/>
<path d="M45.0181 21.0181H40.8996C40.5104 21.0181 40.1951 21.3335 40.1951 21.7227C40.1951 22.1117 40.5104 22.4272 40.8996 22.4272H45.0181C45.4073 22.4272 45.7227 22.1117 45.7227 21.7227C45.7227 21.3336 45.4072 21.0181 45.0181 21.0181Z" fill="white"/>
<path d="M39.3602 6.36256C39.085 6.0874 38.639 6.0874 38.3638 6.36256L35.4517 9.27471C34.8266 9.95412 35.7589 10.8935 36.448 10.271L39.3603 7.35874C39.6353 7.08368 39.6353 6.63762 39.3602 6.36256Z" fill="white"/>
<path d="M41.8143 14.7434C41.6724 14.3811 41.2632 14.2027 40.9014 14.3444L39.4781 14.9021C38.6308 15.2879 39.1122 16.5148 39.9919 16.214L41.4152 15.6564C41.7776 15.5144 41.9562 15.1057 41.8143 14.7434Z" fill="white"/>
<path d="M29.9079 6.64359C30.1799 6.77531 30.6972 6.61641 30.8209 6.24459L31.3947 4.77984C31.5367 4.41759 31.3581 4.00884 30.9958 3.86691C30.6332 3.72497 30.2248 3.90366 30.0828 4.26591L29.5089 5.73066C29.367 6.09291 29.5456 6.50166 29.9079 6.64359Z" fill="white"/>
<path d="M17.1795 6.24465C17.5609 7.11634 18.787 6.57756 18.4914 5.73071L17.9176 4.26596C17.7755 3.90362 17.3671 3.72521 17.0045 3.86696C16.6423 4.0089 16.4637 4.41765 16.6056 4.7799L17.1795 6.24465Z" fill="white"/>
<path d="M12.5485 10.271C12.8236 9.99596 12.8236 9.54981 12.5485 9.27475L9.63627 6.3625C9.36111 6.08734 8.91505 6.08734 8.63989 6.3625C8.36483 6.63756 8.36483 7.08371 8.63989 7.35878L11.5521 10.271C11.7955 10.507 12.2389 10.5701 12.5485 10.271Z" fill="white"/>
<path d="M8.5222 14.9021L7.09889 14.3444C6.73664 14.2025 6.32789 14.3812 6.18595 14.7434C6.04401 15.1058 6.2226 15.5144 6.58495 15.6564L8.00826 16.214C8.09263 16.2471 8.17954 16.2628 8.26504 16.2628C8.54648 16.2628 8.81235 16.0929 8.9212 15.8151C9.06313 15.4527 8.88454 15.044 8.5222 14.9021Z" fill="white"/>
<path d="M32.9524 33.8647C32.629 33.6487 32.1915 33.7358 31.9754 34.0594C31.5755 34.6583 31.1361 35.2404 30.6694 35.7898C30.1018 36.458 29.7892 37.3111 29.7892 38.192V40.5653H17.2328V38.2161C17.2328 36.9964 16.7991 35.8072 16.0115 34.8676C13.2018 31.5156 13.1601 26.473 13.16 26.4232C13.16 26.0341 12.8447 25.7186 12.4555 25.7186C12.0664 25.7186 11.751 26.0341 11.751 26.4232C11.751 26.6499 11.7872 32.0213 14.9316 35.7728C15.507 36.4591 15.8239 37.3268 15.8239 38.2162V40.5654H15.7073C15.3182 40.5654 15.0028 40.8809 15.0028 41.27V47.2958C15.0028 47.6848 15.3182 48.0003 15.7073 48.0003H19.8383C20.2275 48.0003 20.5429 47.6848 20.5429 47.2958C20.5429 46.9067 20.2275 46.5912 19.8383 46.5912H16.4119V41.9744H30.6103V46.5912H22.6564C22.2672 46.5912 21.9518 46.9067 21.9518 47.2958C21.9518 47.6848 22.2672 48.0003 22.6564 48.0003H31.3148C31.704 48.0003 32.0194 47.6848 32.0194 47.2958V41.2698C32.0194 40.8807 31.704 40.5653 31.3148 40.5653H31.1983V38.192C31.1983 37.6449 31.3919 37.1158 31.7434 36.702C32.245 36.1115 32.7173 35.4856 33.1473 34.8417C33.3633 34.5181 33.2761 34.0807 32.9524 33.8647Z" fill="white"/>
<path d="M31.6583 14.5524H31.1983V10.7041C31.1983 9.07148 29.8708 7.74323 28.2391 7.74323C26.8867 7.74323 25.7442 8.65588 25.3923 9.89769C24.918 9.57416 24.3455 9.38469 23.7295 9.38469C22.4428 9.38469 21.3457 10.211 20.9391 11.3608C20.4542 11.0133 19.8607 10.8079 19.2199 10.8079C17.7369 10.8079 16.5055 11.9044 16.2932 13.3292C15.835 13.0378 15.2922 12.8682 14.7103 12.8682C13.0786 12.8682 11.751 14.1964 11.751 15.8291V23.9657C11.751 24.3548 12.0664 24.6703 12.4555 24.6703C12.8447 24.6703 13.16 24.3548 13.16 23.9657V21.9652C13.6113 22.244 14.1423 22.4053 14.7103 22.4053C15.4084 22.4053 16.0504 22.1617 16.5569 21.7557C17.0371 22.7429 18.0502 23.4252 19.2199 23.4252C19.8572 23.4252 20.4474 23.222 20.931 22.878C21.3306 24.0404 22.4338 24.8784 23.7295 24.8784C24.794 24.8784 25.7287 24.3129 26.2503 23.4665C26.4664 23.6631 26.7117 23.8277 26.9787 23.954C25.3683 24.9804 23.46 26.7199 22.2933 29.5717C21.9727 30.4429 23.1963 30.9388 23.5973 30.1052C25.5924 25.2289 30.1685 24.0004 30.2129 23.989C30.4623 23.9261 30.6576 23.7323 30.7223 23.4834C30.7223 23.4834 31.3607 21.0227 31.3615 21.0188C31.4429 20.6383 31.2003 20.2639 30.8198 20.1825L25.6575 19.079C24.4941 18.8304 23.6497 17.745 23.6497 16.4983C23.6497 16.2022 23.8695 15.9614 24.1397 15.9614H31.6584C32.523 15.9614 33.1819 16.2439 33.6726 16.8251C35.5337 19.0285 34.792 24.9223 34.0723 29.1638C33.9338 29.9796 33.6692 30.8335 33.2854 31.7016C32.9411 32.5692 34.1624 33.0914 34.5741 32.2712C35.0051 31.2964 35.3036 30.3301 35.4616 29.3994C36.2931 24.4989 36.9636 18.5377 34.7492 15.9158C33.9849 15.0111 32.945 14.5524 31.6583 14.5524ZM26.6887 10.7041C26.6887 9.84838 27.3842 9.15219 28.239 9.15219C29.0938 9.15219 29.7892 9.84838 29.7892 10.7041V14.5524H26.6887V10.7041ZM14.7103 20.9962C13.8555 20.9962 13.16 20.3 13.16 19.4443V15.829C13.16 14.9732 13.8555 14.277 14.7103 14.277C15.5651 14.277 16.2605 14.9732 16.2605 15.829V19.4443C16.2605 20.3 15.5651 20.9962 14.7103 20.9962ZM19.2199 22.016C18.3651 22.016 17.6696 21.3206 17.6696 20.4658V13.7672C17.6696 12.9124 18.3651 12.2169 19.2199 12.2169C20.0748 12.2169 20.7702 12.9123 20.7702 13.7672V20.4658C20.7702 21.3206 20.0748 22.016 19.2199 22.016ZM26.6887 20.7404L29.7829 21.4018C29.7184 22.1986 29.0513 22.8277 28.239 22.8277C27.3842 22.8277 26.6887 22.1315 26.6887 21.2758V20.7404ZM22.2407 16.4983C22.2407 18.3759 23.5139 20.0177 25.2798 20.4372V21.9174C25.2798 22.7731 24.5843 23.4693 23.7295 23.4693C22.8747 23.4693 22.1793 22.7731 22.1793 21.9174V12.3455C22.1793 11.4898 22.8747 10.7936 23.7295 10.7936C24.5843 10.7936 25.2798 11.4898 25.2798 12.3455V14.5524H24.1397C23.0925 14.5524 22.2407 15.4253 22.2407 16.4983Z" fill="white"/>
</g>
<defs>
<clipPath id="clip0_7079_1114">
<rect width="48" height="48" fill="white"/>
</clipPath>
</defs>
</svg>
