<svg width="48" height="48" viewBox="0 0 48 48" fill="none" xmlns="http://www.w3.org/2000/svg">
<path d="M0.673198 47.7231C1.09581 48.0146 1.63307 48.0787 2.11118 47.8973L13.3027 43.6483C15.6775 42.8777 18.0826 42.8525 19.9039 43.5793L24.2846 45.3282C24.2949 45.3323 24.3055 45.3362 24.3161 45.3399C25.2627 45.6662 27.7362 46.2834 30.2886 44.9837L35.9957 42.4593C36.3508 42.3023 36.5113 41.8871 36.3543 41.5319C36.1971 41.1767 35.7819 41.0163 35.4267 41.1733L29.7025 43.7053C29.6965 43.708 29.6904 43.7108 29.6844 43.7137C29.6778 43.7168 29.671 43.7201 29.6645 43.7235C27.6009 44.7811 25.5792 44.2854 24.7897 44.0158L20.425 42.2734C18.2676 41.4125 15.5779 41.4278 12.851 42.3166C12.8404 42.32 12.8298 42.3238 12.8194 42.3277L1.61198 46.5827C1.5502 46.6061 1.50164 46.5864 1.47183 46.5657C1.44192 46.5451 1.40621 46.5067 1.40621 46.4408V35.7158C1.40621 35.6477 1.45214 35.5874 1.51777 35.5694L4.74163 34.683C7.36496 33.9618 7.77144 32.7898 11.4063 31.1633C13.077 30.4155 14.0712 30.1364 16.1162 30.0424C17.3565 29.9836 19.9885 29.9767 20.259 29.9897C20.8913 30.0198 21.4061 30.146 22.0444 30.3567C23.2613 30.7581 25.1927 31.5732 29.0867 33.1277C30.8752 33.8413 30.3223 35.3605 30.3223 35.6021C30.0338 36.4676 29.3904 36.8674 28.5257 36.6554C26.512 36.1621 21.7139 35.0067 21.6656 34.9951C21.2878 34.9041 20.9084 35.1366 20.8174 35.5141C20.7264 35.8916 20.9588 36.2714 21.3364 36.3622C21.3846 36.3738 26.18 37.5286 28.1912 38.0213C29.7384 38.4005 30.9418 37.6632 31.519 36.4049C31.5563 36.3938 43.0129 33.0055 43.0494 32.9918C44.4481 32.4537 45.7404 32.5276 46.3898 33.8708C47.1754 35.6763 45.3906 36.7333 44.9767 36.9491C44.6069 37.1126 41.6484 38.4213 38.4307 39.8446C38.0756 40.0017 37.9151 40.417 38.0721 40.7721C38.2293 41.1273 38.6447 41.2878 38.9996 41.1306C39.0264 41.1187 45.5756 38.2225 45.6017 38.2091C46.8844 37.5513 48.764 35.7757 47.6725 33.2941C47.6695 33.2872 47.6664 33.2804 47.6631 33.2735C46.6861 31.2335 44.6452 30.8595 42.5805 31.6655L42.4121 31.7153C45.9617 28.2679 47.9981 23.5235 47.9981 18.4769C47.9981 8.26977 39.6955 0.00146484 29.5228 0.00146484C19.3559 0.00146484 11.0474 8.21924 11.0474 18.4769C11.0474 22.2313 12.1504 25.7759 14.2037 28.8067C13.048 28.9839 12.1218 29.3023 10.8319 29.8796C7.07715 31.5599 6.72138 32.6803 4.36899 33.327L1.14503 34.2134C0.470798 34.399 0 35.0167 0 35.7158V46.4408C0 46.9529 0.251711 47.4323 0.673198 47.7231ZM42.9636 7.96725C45.342 11.0021 46.5918 14.7116 46.5918 18.4769C46.5918 23.6553 44.2541 28.4681 40.4303 31.6058C39.9917 30.7804 39.8568 29.7455 39.7055 28.5834C39.6242 27.958 39.5399 27.3112 39.4019 26.6391C39.0467 24.9105 37.9108 24.2197 36.9979 23.6646C35.8005 22.9364 34.9352 22.4103 35.3306 19.7595C35.5767 18.1088 36.2548 17.0793 37.4037 16.6121C38.398 16.2079 39.561 16.2776 40.4943 16.3409C41.1541 16.3856 42.2756 16.5382 42.8828 15.5096C43.4302 14.5821 43.2736 13.0507 42.3749 10.5438C42.019 9.55129 42.2115 8.70326 42.9636 7.96725ZM29.5115 1.40786C33.3695 1.40786 36.9753 2.69285 39.8858 4.92347C39.5101 5.44892 39.038 5.75172 38.4769 5.82531C37.6877 5.92891 37.3957 5.66894 36.9912 5.30933C36.5655 4.93087 35.922 4.35874 34.7974 4.7685C34.2262 4.97653 33.4479 5.37514 32.484 5.95328C31.6635 6.44526 30.5968 6.08209 30.2559 5.1929C29.7061 3.75819 29.4528 2.46411 29.5115 1.40786ZM12.4535 18.4769C12.4535 11.7279 16.4153 5.75304 22.3433 2.99331C22.9852 4.02968 23.7075 5.56001 23.3287 6.7595C23.0671 7.58767 22.8077 8.14977 22.5993 8.60135C22.0922 9.70044 21.8663 10.3349 22.6987 11.643C23.1471 12.3477 23.2872 13.1737 23.0738 13.8528C22.765 14.8345 21.9444 15.0088 20.8309 15.3508C18.9813 15.919 16.4483 16.697 16.4483 19.0465C16.4483 21.8228 18.8042 23.8496 22.3396 23.2069C25.614 22.6118 28.0066 21.5852 29.411 25.4136C29.5447 25.7782 29.9483 25.9654 30.3132 25.8315C30.6778 25.6978 30.8649 25.2939 30.7311 24.9293C29.9915 22.913 28.8675 21.7471 27.2949 21.3649C25.6433 20.9634 23.8113 21.5099 22.088 21.8233C19.4033 22.3113 17.8546 20.9257 17.8546 19.0465C17.8546 17.8326 19.3235 17.2849 21.2438 16.695C22.4355 16.3289 23.8772 15.9855 24.4153 14.2745C24.7518 13.2044 24.5536 11.9385 23.8851 10.888C23.426 10.1665 23.4599 10.0928 23.8763 9.19055C24.0893 8.72866 24.3814 8.09615 24.6696 7.18305C25.1691 5.60163 24.4861 3.83731 23.6569 2.44629C25.0615 1.93069 26.5525 1.59573 28.1011 1.46739C28.0559 2.6981 28.3373 4.11555 28.943 5.69613C29.5965 7.40139 31.6377 8.10065 33.2073 7.15915C34.082 6.63445 34.7983 6.26471 35.2786 6.08977C35.6027 5.97184 35.6651 6.01187 36.0569 6.36014C36.5256 6.77675 37.2345 7.40627 38.6598 7.21952C39.586 7.09812 40.3709 6.61926 40.9676 5.82391C41.3445 6.16515 41.7056 6.52345 42.0509 6.89675C40.8526 8.03025 40.4961 9.46973 41.0513 11.0183C42.0232 13.7292 41.809 14.5624 41.6719 14.7948C41.543 15.0135 41.2707 14.9841 40.5896 14.9379C39.6334 14.8731 38.1883 14.7751 36.8742 15.3095C35.2482 15.9706 34.2611 17.398 33.9398 19.5521C33.4068 23.1265 34.9929 24.0911 36.2674 24.8661C37.1195 25.3843 37.7926 25.7936 38.0245 26.9222C38.1522 27.5438 38.2331 28.1646 38.3112 28.765C38.4854 30.1027 38.6534 31.3776 39.3032 32.4673C39.1583 32.5686 39.0118 32.668 38.8632 32.7652L31.8264 34.8472C31.7939 33.6171 31.1674 32.563 29.9112 31.955C29.8389 31.92 29.7633 31.8866 29.6859 31.8542C30.0896 30.6883 30.5579 29.7078 30.8459 28.6347C30.9466 28.2597 30.7241 27.8741 30.3491 27.7734C29.9741 27.6728 29.5884 27.8952 29.4878 28.2701C29.2309 29.2269 28.7695 30.2119 28.3781 31.329C20.8922 28.324 21.8151 28.5408 17.8282 28.5902C18.4823 26.434 17.3866 24.8994 16.4163 23.1897C15.4362 21.4627 13.7466 21.1049 12.6508 21.0726C12.5195 20.2124 12.4535 19.3405 12.4535 18.4769ZM12.9257 22.4959C13.705 22.5737 14.6328 22.8963 15.1934 23.8841C16.2343 25.7188 17.0867 26.8383 16.3177 28.6263C16.1441 28.633 15.9765 28.6406 15.8156 28.6494C14.4298 26.7875 13.4567 24.7067 12.9257 22.4959Z" fill="white"/>
</svg>
