<svg width="48" height="48" viewBox="0 0 48 48" fill="none" xmlns="http://www.w3.org/2000/svg">
<g clip-path="url(#clip0_7079_1141)">
<path d="M3.73376 35.8914C4.15222 35.8914 4.49145 35.5522 4.49145 35.1337C4.49145 34.7153 4.15222 34.376 3.73376 34.376C3.3153 34.376 2.97607 34.7153 2.97607 35.1337C2.97607 35.5522 3.3153 35.8914 3.73376 35.8914Z" fill="white"/>
<path d="M3.73376 38.922C4.15222 38.922 4.49145 38.5828 4.49145 38.1643C4.49145 37.7458 4.15222 37.4066 3.73376 37.4066C3.3153 37.4066 2.97607 37.7458 2.97607 38.1643C2.97607 38.5828 3.3153 38.922 3.73376 38.922Z" fill="white"/>
<path d="M26.219 11.4458C26.219 10.2226 25.2238 9.22742 24.0006 9.22742C22.7774 9.22742 21.7822 10.2227 21.7822 11.4458C21.7822 12.669 22.7775 13.6642 24.0006 13.6642C25.2239 13.6642 26.219 12.6691 26.219 11.4458ZM24.0007 12.258C23.553 12.258 23.1886 11.8937 23.1886 11.4458C23.1886 10.998 23.5529 10.6337 24.0007 10.6337C24.4486 10.6337 24.8128 10.998 24.8128 11.4458C24.8128 11.8937 24.4485 12.258 24.0007 12.258Z" fill="white"/>
<path d="M47.1296 30.5223C46.5675 29.9601 45.82 29.6504 45.025 29.6504C44.23 29.6504 43.4827 29.9601 42.9204 30.5223L38.1525 35.2909V32.977C38.1525 32.5887 37.8377 32.2739 37.4494 32.2739C37.061 32.2739 36.7463 32.5887 36.7463 32.977V36.6974L35.9825 37.4613H32.2103C32.4943 37.0054 32.6586 36.4675 32.6586 35.8918C32.6586 35.0964 32.349 34.3489 31.7871 33.7867C31.4423 33.442 31.0278 33.1927 30.5754 33.0512V29.1749C30.5754 28.1392 30.1898 27.1926 29.5557 26.4687H34.0405C35.5325 26.4687 36.7463 27.683 36.7463 29.1754V29.6957C36.7463 30.084 37.0611 30.3988 37.4494 30.3988C37.8378 30.3988 38.1525 30.084 38.1525 29.6957V29.1754C38.1525 27.1579 36.6922 25.4761 34.7735 25.1292C35.5739 24.3178 36.069 23.2044 36.069 21.9773C36.069 20.156 34.9786 18.5856 33.4168 17.8815C34.7049 15.9944 35.4054 13.7451 35.4054 11.4459C35.4054 8.34721 34.185 5.45024 31.9691 3.28865C31.691 3.01733 31.2458 3.02296 30.9747 3.30102C30.7036 3.57899 30.7091 4.02421 30.9871 4.29533C32.9294 6.19002 33.9992 8.72943 33.9992 11.4459C33.9992 13.6333 33.2756 15.7689 31.9556 17.5031C31.8308 17.4926 31.7049 17.4861 31.5775 17.4861C29.9865 17.4861 28.5871 18.3184 27.789 19.5697C27.3995 18.959 26.8667 18.4485 26.238 18.0856C26.3023 17.9767 26.3555 17.8595 26.3946 17.7344L26.8289 16.3447L28.2494 16.6635C28.9573 16.8224 29.677 16.5069 30.0398 15.8784L30.8587 14.46C31.2217 13.8316 31.1351 13.0506 30.6435 12.5168L29.6572 11.446L30.6435 10.3752C31.1351 9.8414 31.2217 9.06046 30.8587 8.43215L30.0398 7.01362C29.677 6.38512 28.9574 6.06965 28.2494 6.22846L26.8288 6.54721L26.3946 5.15755C26.178 4.46502 25.5451 3.99965 24.8196 3.99965H23.1815C22.4558 3.99965 21.8228 4.46502 21.6064 5.15765L21.1722 6.54721L19.7517 6.22846C19.0436 6.06946 18.3242 6.38512 17.9613 7.01352L17.1423 8.43205C16.7795 9.06046 16.866 9.8414 17.3575 10.3751L18.3439 11.4459L17.3575 12.5167C16.866 13.0506 16.7795 13.8313 17.1423 14.4598L17.9613 15.8783C18.3241 16.5067 19.0433 16.8222 19.7517 16.6634L21.1722 16.3446L21.6064 17.7342C21.6455 17.8593 21.6985 17.9766 21.7629 18.0855C21.1343 18.4484 20.6015 18.9588 20.2119 19.5696C19.4138 18.3183 18.0144 17.486 16.4234 17.486C16.296 17.486 16.1701 17.4926 16.0453 17.503C14.7254 15.7688 14.0018 13.6333 14.0018 11.4458C14.0018 5.93249 18.4872 1.44712 24.0006 1.44712C25.5832 1.44712 27.0975 1.80655 28.5016 2.5154C28.8482 2.69043 29.271 2.5513 29.4461 2.20462C29.6211 1.85793 29.482 1.43502 29.1353 1.26008C27.5331 0.451021 25.8053 0.0407715 24.0006 0.0407715C17.7118 0.0407715 12.5956 5.15699 12.5956 11.4457C12.5956 13.7449 13.2961 15.9943 14.5842 17.8813C13.0224 18.5854 11.932 20.1559 11.932 21.9772C11.932 23.2043 12.4271 24.3176 13.2276 25.1291C11.3087 25.4761 9.84834 27.1576 9.84834 29.1749V32.9153H7.46737V32.1032C7.46737 31.7149 7.15256 31.4001 6.76425 31.4001H0.703125C0.314812 31.4001 0 31.7149 0 32.1032V47.256C0 47.6443 0.314812 47.9591 0.703125 47.9591H6.76425C7.15256 47.9591 7.46737 47.6443 7.46737 47.256V46.4438H10.1562L19.3778 47.0226C19.7649 47.0458 20.0993 46.7524 20.1235 46.3648C20.1478 45.9772 19.8533 45.6433 19.4658 45.619L10.8772 45.0801V33.9591L12.1857 32.926C12.7749 32.4606 13.4343 32.0995 14.1452 31.8525C14.8562 31.6058 15.5978 31.4808 16.3494 31.4808C17.8862 31.4808 19.3893 32.0136 20.5823 32.9816L22.0429 34.1647C22.168 34.2662 22.3243 34.3215 22.4855 34.3215H29.6829C30.1021 34.3215 30.4962 34.4847 30.7926 34.7811C31.089 35.0776 31.2522 35.472 31.2522 35.8918C31.2522 36.7572 30.5483 37.4613 29.6828 37.4613H21.5382C21.3517 37.4613 21.1729 37.5353 21.0411 37.6672L20.0467 38.6616C19.7721 38.9362 19.7721 39.3814 20.0467 39.6561C20.1839 39.7934 20.3639 39.862 20.5438 39.862C20.7237 39.862 20.9037 39.7934 21.041 39.6561L21.8294 38.8676H36.2738C36.4602 38.8676 36.6392 38.7935 36.771 38.6616L43.9149 31.5169C44.2115 31.2202 44.6057 31.0569 45.025 31.0569C45.4444 31.0569 45.8387 31.2202 46.1352 31.5169C46.7473 32.129 46.7473 33.1251 46.1352 33.7372L38.3229 41.5496C37.9694 41.9031 37.5299 42.1678 37.0516 42.3154L26.3934 45.6071C25.5976 45.8534 24.7707 45.9518 23.9358 45.8996L22.7405 45.8246C22.3526 45.8001 22.019 46.0947 21.9947 46.4824C21.9704 46.8699 22.2649 47.2039 22.6524 47.2281L23.8479 47.3031C24.0225 47.314 24.1966 47.3195 24.3705 47.3195C25.1982 47.3195 26.0164 47.1959 26.8088 46.9506L37.4663 43.6591C38.1624 43.4444 38.8025 43.0588 39.3174 42.544L47.1298 34.7316C48.2901 33.5709 48.2901 31.6827 47.1296 30.5223ZM31.5777 18.8922C33.2789 18.8922 34.6628 20.2761 34.6628 21.9773C34.6628 23.6784 33.2789 25.0624 31.5777 25.0624C29.8766 25.0624 28.4927 23.6784 28.4927 21.9773C28.4927 20.2761 29.8766 18.8922 31.5777 18.8922ZM23.1817 17.486C23.0744 17.486 22.9808 17.4172 22.9489 17.3149L22.3365 15.3551C22.2838 15.1866 22.1698 15.0441 22.017 14.9559L21.9535 14.9193C21.8457 14.8568 21.7241 14.8248 21.6014 14.8248C21.55 14.8248 21.4984 14.8304 21.4475 14.8418L19.444 15.2914C19.3392 15.3147 19.233 15.2681 19.1794 15.1753L18.3604 13.7568C18.3067 13.6639 18.3195 13.5484 18.3922 13.4695L19.7836 11.9588C19.9031 11.829 19.9695 11.659 19.9695 11.4825V11.4094C19.9695 11.2328 19.9031 11.0629 19.7836 10.933L18.3922 9.42233C18.3195 9.34349 18.3067 9.22799 18.3604 9.13508L19.1794 7.71655C19.2331 7.62365 19.3397 7.57724 19.444 7.60049L21.4475 8.05002C21.6198 8.08874 21.8005 8.06118 21.9535 7.97258L22.017 7.93593C22.1698 7.84771 22.2839 7.70521 22.3365 7.53674L22.9489 5.57699C22.9808 5.47462 23.0744 5.4059 23.1817 5.4059H24.8197C24.927 5.4059 25.0206 5.47471 25.0525 5.57699L25.6649 7.53674C25.7175 7.70502 25.8312 7.84743 25.9838 7.93565L26.0479 7.97258C26.201 8.06108 26.3819 8.08883 26.5539 8.05002L28.5574 7.60049C28.662 7.57696 28.7684 7.62374 28.822 7.71655L29.6411 9.13518C29.6947 9.22799 29.6819 9.3434 29.6092 9.42233L28.2178 10.933C28.0983 11.0629 28.0319 11.2328 28.0319 11.4094V11.4823C28.0319 11.6588 28.0983 11.8288 28.2178 11.9586L29.6092 13.4693C29.6818 13.5482 29.6947 13.6636 29.641 13.7566L28.822 15.1752C28.7684 15.2681 28.662 15.3143 28.5574 15.2912L26.5537 14.8416C26.3817 14.8029 26.2014 14.8304 26.0486 14.9186L25.9839 14.9559C25.8314 15.0442 25.7176 15.1866 25.6651 15.3547L25.0526 17.3147C25.0206 17.4171 24.927 17.4859 24.8198 17.4859L23.1817 17.486ZM24.0007 18.8922C25.7017 18.8922 27.0857 20.2761 27.0857 21.9773C27.0857 23.6784 25.7017 25.0624 24.0007 25.0624C22.2996 25.0624 20.9155 23.6784 20.9155 21.9773C20.9155 20.2761 22.2995 18.8922 24.0007 18.8922ZM16.4235 18.8922C18.1246 18.8922 19.5086 20.2761 19.5086 21.9773C19.5086 23.6784 18.1247 25.0624 16.4235 25.0624C14.7224 25.0624 13.3385 23.6784 13.3385 21.9773C13.3385 20.2761 14.7224 18.8922 16.4235 18.8922ZM6.06112 46.5529H1.40625V32.8063H6.06112V46.5529ZM7.46737 34.3216H9.47081V45.0376H7.46737V34.3216ZM13.6839 30.524C12.8242 30.8226 12.0269 31.2594 11.3143 31.8222L11.2547 31.8693V29.1748C11.2547 27.6826 12.4688 26.4686 13.9609 26.4686H18.4455C17.8114 27.1925 17.4257 28.1391 17.4257 29.1748V30.1473C17.0701 30.0995 16.7106 30.0744 16.3494 30.0744C15.4406 30.0744 14.5438 30.2256 13.6839 30.524ZM21.4679 31.8891C20.6827 31.252 19.7857 30.7721 18.832 30.4658V29.1748C18.832 27.6826 20.0461 26.4686 21.5382 26.4686H26.4629C27.955 26.4686 29.1691 27.6827 29.1691 29.1748V32.9151H22.7345L21.4679 31.8891Z" fill="white"/>
</g>
<defs>
<clipPath id="clip0_7079_1141">
<rect width="48" height="48" fill="white"/>
</clipPath>
</defs>
</svg>
