<svg width="49" height="48" viewBox="0 0 49 48" fill="none" xmlns="http://www.w3.org/2000/svg">
<path fill-rule="evenodd" clip-rule="evenodd" d="M29.3933 32.7539L41.087 21.0953C42.7711 19.4162 43.6132 18.5767 44.0567 17.5092C44.5002 16.4416 44.5002 15.2544 44.5002 12.8799V11.7455C44.5002 8.09426 44.5002 6.26862 43.3625 5.13431C42.2248 4 40.3936 4 36.7314 4H35.5936C33.212 4 32.0212 4 30.9504 4.4422C29.8796 4.88439 29.0376 5.7239 27.3535 7.40291L15.6598 19.0616C13.692 21.0235 12.4718 22.24 11.9993 23.415C11.85 23.7862 11.7754 24.1533 11.7754 24.5385C11.7754 26.1426 13.0702 27.4336 15.6598 30.0154L16.0079 30.3624L20.0849 26.2246C20.6663 25.6345 21.6161 25.6274 22.2062 26.2089C22.7963 26.7903 22.8033 27.74 22.2219 28.3301L18.1324 32.4806L18.4065 32.7539C20.9961 35.3357 22.2909 36.6267 23.8999 36.6267C24.2554 36.6267 24.5956 36.5636 24.9378 36.4376C26.1443 35.9932 27.3759 34.7653 29.3933 32.7539ZM34.887 19.0624C33.37 20.5748 30.9105 20.5748 29.3936 19.0624C27.8766 17.55 27.8766 15.0979 29.3936 13.5855C30.9105 12.0731 33.37 12.0731 34.887 13.5855C36.4039 15.0979 36.4039 17.55 34.887 19.0624Z" fill="#B5895C"/>
<g opacity="0.5">
<path d="M18.5686 11.9261L13.4823 16.9971C12.5474 17.9292 11.6898 18.7842 11.0125 19.5571C10.5775 20.0535 10.1429 20.5967 9.77474 21.197L9.72518 21.1476C9.63111 21.0538 9.58401 21.0069 9.53678 20.961C8.65272 20.1032 7.61282 19.4212 6.47272 18.9515C6.41179 18.9264 6.34996 18.9019 6.22629 18.8529L5.46899 18.5528C4.44306 18.1463 4.16964 16.8256 4.95029 16.0473C7.1907 13.8137 9.88064 11.1319 11.1788 10.5932C12.3237 10.1182 13.5605 9.96016 14.7533 10.1364C15.8462 10.298 16.8801 10.8594 18.5686 11.9261Z" fill="#B5895C"/>
<path d="M27.2534 38.6263C27.6632 39.0423 27.9355 39.3362 28.1815 39.6501C28.5062 40.0645 28.7966 40.5045 29.0496 40.9659C29.3345 41.4852 29.5557 42.04 29.998 43.1496C30.3581 44.0529 31.5543 44.2917 32.2491 43.599L32.4172 43.4314C34.6576 41.1977 37.3474 38.5158 37.8877 37.2215C38.3641 36.0801 38.5227 34.847 38.3459 33.6578C38.1839 32.5683 37.6209 31.5376 36.5512 29.8546L31.4479 34.9426C30.4919 35.8958 29.6152 36.7699 28.8223 37.4547C28.3472 37.865 27.8273 38.2752 27.2534 38.6263Z" fill="#B5895C"/>
</g>
</svg>
