<svg width="44" height="44" viewBox="0 0 44 44" fill="none" xmlns="http://www.w3.org/2000/svg">
<g id="share" filter="url(#filter0_d_494_20374)">
<g id="Ellipse 1336" filter="url(#filter1_dd_494_20374)">
<circle cx="18" cy="18" r="18" transform="matrix(-1 0 0 1 40 3)" fill="white"/>
</g>
<g id="ios_share">
<mask id="mask0_494_20374" style="mask-type:alpha" maskUnits="userSpaceOnUse" x="14" y="13" width="16" height="16">
<rect id="Bounding box" x="14" y="13" width="16" height="16" fill="#D9D9D9"/>
</mask>
<g mask="url(#mask0_494_20374)">
<path id="ios_share_2" d="M18 28.3331C17.6333 28.3331 17.3194 28.2026 17.0583 27.9414C16.7972 27.6803 16.6666 27.3664 16.6666 26.9998V19.6664C16.6666 19.2998 16.7972 18.9859 17.0583 18.7248C17.3194 18.4637 17.6333 18.3331 18 18.3331H19.3333C19.5222 18.3331 19.6805 18.397 19.8083 18.5248C19.9361 18.6526 20 18.8109 20 18.9998C20 19.1887 19.9361 19.347 19.8083 19.4748C19.6805 19.6026 19.5222 19.6664 19.3333 19.6664H18V26.9998H26V19.6664H24.6666C24.4777 19.6664 24.3194 19.6026 24.1916 19.4748C24.0638 19.347 24 19.1887 24 18.9998C24 18.8109 24.0638 18.6526 24.1916 18.5248C24.3194 18.397 24.4777 18.3331 24.6666 18.3331H26C26.3666 18.3331 26.6805 18.4637 26.9416 18.7248C27.2027 18.9859 27.3333 19.2998 27.3333 19.6664V26.9998C27.3333 27.3664 27.2027 27.6803 26.9416 27.9414C26.6805 28.2026 26.3666 28.3331 26 28.3331H18ZM21.3333 16.2164L20.7333 16.8164C20.6 16.9498 20.4444 17.0137 20.2666 17.0081C20.0888 17.0026 19.9333 16.9331 19.8 16.7998C19.6777 16.6664 19.6138 16.5109 19.6083 16.3331C19.6027 16.1553 19.6666 15.9998 19.8 15.8664L21.5333 14.1331C21.6666 13.9998 21.8222 13.9331 22 13.9331C22.1777 13.9331 22.3333 13.9998 22.4666 14.1331L24.2 15.8664C24.3222 15.9887 24.3833 16.1414 24.3833 16.3248C24.3833 16.5081 24.3222 16.6664 24.2 16.7998C24.0666 16.9331 23.9083 16.9998 23.725 16.9998C23.5416 16.9998 23.3833 16.9331 23.25 16.7998L22.6666 16.2164V22.9998C22.6666 23.1887 22.6027 23.347 22.475 23.4748C22.3472 23.6026 22.1888 23.6664 22 23.6664C21.8111 23.6664 21.6527 23.6026 21.525 23.4748C21.3972 23.347 21.3333 23.1887 21.3333 22.9998V16.2164Z" fill="#1C1B1F"/>
</g>
</g>
</g>
<defs>
<filter id="filter0_d_494_20374" x="0" y="0" width="44" height="44" filterUnits="userSpaceOnUse" color-interpolation-filters="sRGB">
<feFlood flood-opacity="0" result="BackgroundImageFix"/>
<feColorMatrix in="SourceAlpha" type="matrix" values="0 0 0 0 0 0 0 0 0 0 0 0 0 0 0 0 0 0 127 0" result="hardAlpha"/>
<feOffset dy="1"/>
<feGaussianBlur stdDeviation="2"/>
<feComposite in2="hardAlpha" operator="out"/>
<feColorMatrix type="matrix" values="0 0 0 0 0.0470588 0 0 0 0 0.0470588 0 0 0 0 0.0509804 0 0 0 0.05 0"/>
<feBlend mode="normal" in2="BackgroundImageFix" result="effect1_dropShadow_494_20374"/>
<feBlend mode="normal" in="SourceGraphic" in2="effect1_dropShadow_494_20374" result="shape"/>
</filter>
<filter id="filter1_dd_494_20374" x="0" y="0" width="44" height="44" filterUnits="userSpaceOnUse" color-interpolation-filters="sRGB">
<feFlood flood-opacity="0" result="BackgroundImageFix"/>
<feColorMatrix in="SourceAlpha" type="matrix" values="0 0 0 0 0 0 0 0 0 0 0 0 0 0 0 0 0 0 127 0" result="hardAlpha"/>
<feOffset dy="1"/>
<feGaussianBlur stdDeviation="2"/>
<feComposite in2="hardAlpha" operator="out"/>
<feColorMatrix type="matrix" values="0 0 0 0 0.0470588 0 0 0 0 0.0470588 0 0 0 0 0.0509804 0 0 0 0.05 0"/>
<feBlend mode="normal" in2="BackgroundImageFix" result="effect1_dropShadow_494_20374"/>
<feColorMatrix in="SourceAlpha" type="matrix" values="0 0 0 0 0 0 0 0 0 0 0 0 0 0 0 0 0 0 127 0" result="hardAlpha"/>
<feOffset dy="1"/>
<feGaussianBlur stdDeviation="2"/>
<feComposite in2="hardAlpha" operator="out"/>
<feColorMatrix type="matrix" values="0 0 0 0 0.0470588 0 0 0 0 0.0470588 0 0 0 0 0.0509804 0 0 0 0.1 0"/>
<feBlend mode="normal" in2="effect1_dropShadow_494_20374" result="effect2_dropShadow_494_20374"/>
<feBlend mode="normal" in="SourceGraphic" in2="effect2_dropShadow_494_20374" result="shape"/>
</filter>
</defs>
</svg>
