<svg width="16" height="16" viewBox="0 0 16 16" fill="none" xmlns="http://www.w3.org/2000/svg">
<path fill-rule="evenodd" clip-rule="evenodd" d="M9.20206 3.55554C9.20206 2.32824 10.2015 1.33331 11.4344 1.33331C12.6673 1.33331 13.6667 2.32824 13.6667 3.55554C13.6667 4.78284 12.6673 5.77776 11.4344 5.77776C10.8118 5.77776 10.2492 5.52395 9.84476 5.11563L6.75448 7.21968C6.78306 7.36164 6.79802 7.50828 6.79802 7.6581C6.79802 7.95478 6.7394 8.23836 6.6331 8.49755L10.0216 10.7238C10.4061 10.4107 10.8983 10.2222 11.4344 10.2222C12.6673 10.2222 13.6667 11.2171 13.6667 12.4444C13.6667 13.6717 12.6673 14.6666 11.4344 14.6666C10.2015 14.6666 9.20206 13.6717 9.20206 12.4444C9.20206 12.123 9.27087 11.817 9.39452 11.5407L6.03342 9.33244C5.64134 9.67321 5.12777 9.88032 4.5657 9.88032C3.33282 9.88032 2.33337 8.8854 2.33337 7.6581C2.33337 6.4308 3.33282 5.43588 4.5657 5.43588C5.27464 5.43588 5.90573 5.76482 6.31434 6.27677L9.30932 4.2376C9.23966 4.02238 9.20206 3.79305 9.20206 3.55554Z" fill="#1C1B1F"/>
</svg>
