<svg width="20" height="20" viewBox="0 0 20 20" fill="none" xmlns="http://www.w3.org/2000/svg">
<g id="square_foot">
<mask id="mask0_7022_1687" style="mask-type:alpha" maskUnits="userSpaceOnUse" x="0" y="0" width="20" height="20">
<rect id="Bounding box" width="20" height="20" fill="#D9D9D9"/>
</mask>
<g mask="url(#mask0_7022_1687)">
<path id="square_foot_2" d="M4.83333 17.1812C4.31944 17.1812 3.88542 17.0041 3.53125 16.65C3.17708 16.2958 3 15.8618 3 15.3479V3.93121C3 3.52844 3.1875 3.24719 3.5625 3.08746C3.9375 2.92774 4.26389 2.98677 4.54167 3.26455L6.41667 5.13955L5.29167 6.26455L5.875 6.84788L7 5.72288L9.16667 7.88955L8.04167 9.01455L8.625 9.59788L9.75 8.47288L11.9167 10.6395L10.7917 11.7645L11.375 12.3479L12.5 11.2229L14.6667 13.3895L13.5417 14.5145L14.125 15.0979L15.25 13.9729L16.9167 15.6395C17.1944 15.9173 17.2535 16.2437 17.0938 16.6187C16.934 16.9937 16.6528 17.1812 16.25 17.1812H4.83333ZM5.5 14.6812H12.4167L5.5 7.76455V14.6812Z" fill="#B3B3B3"/>
</g>
</g>
</svg>
