<svg width="15" height="15" viewBox="0 0 15 15" fill="none" xmlns="http://www.w3.org/2000/svg">
<path d="M1.83333 14.1812C1.31944 14.1812 0.885417 14.0041 0.53125 13.65C0.177083 13.2958 0 12.8618 0 12.3479V0.931213C0 0.528435 0.1875 0.247185 0.5625 0.0874631C0.9375 -0.0722591 1.26389 -0.0132313 1.54167 0.264546L3.41667 2.13955L2.29167 3.26455L2.875 3.84788L4 2.72288L6.16667 4.88955L5.04167 6.01455L5.625 6.59788L6.75 5.47288L8.91667 7.63955L7.79167 8.76455L8.375 9.34788L9.5 8.22288L11.6667 10.3895L10.5417 11.5145L11.125 12.0979L12.25 10.9729L13.9167 12.6395C14.1944 12.9173 14.2535 13.2437 14.0938 13.6187C13.934 13.9937 13.6528 14.1812 13.25 14.1812H1.83333ZM2.5 11.6812H9.41667L2.5 4.76455V11.6812Z" fill="#B3B3B3"/>
</svg>
