<svg width="48" height="48" viewBox="0 0 48 48" fill="none" xmlns="http://www.w3.org/2000/svg">
<path opacity="0.5" d="M44 24C44 35.0457 35.0457 44 24 44C12.9543 44 4 35.0457 4 24C4 12.9543 12.9543 4 24 4C35.0457 4 44 12.9543 44 24Z" fill="#B5895C"/>
<path d="M20.8255 16.9958L21.1532 16.4079C22.4198 14.1357 23.0531 12.9995 24 12.9995C24.9469 12.9995 25.5802 14.1357 26.8468 16.4079L27.1745 16.9958C27.5345 17.6415 27.7144 17.9643 27.9951 18.1774C28.2757 18.3904 28.6251 18.4695 29.3241 18.6276L29.9605 18.7716C32.4201 19.3281 33.65 19.6064 33.9426 20.5473C34.2352 21.4882 33.3967 22.4686 31.7199 24.4295L31.2861 24.9368C30.8096 25.494 30.5713 25.7726 30.4641 26.1173C30.357 26.4619 30.393 26.8337 30.465 27.5771L30.5306 28.2539C30.7841 30.8701 30.9109 32.1783 30.1449 32.7598C29.3788 33.3413 28.2273 32.8111 25.9243 31.7507L25.3285 31.4764C24.6741 31.1751 24.3469 31.0244 24 31.0244C23.6531 31.0244 23.3259 31.1751 22.6715 31.4764L22.0756 31.7507C19.7727 32.8111 18.6212 33.3413 17.8551 32.7598C17.0891 32.1783 17.2159 30.8701 17.4694 28.2539L17.535 27.5771C17.607 26.8337 17.643 26.4619 17.5359 26.1173C17.4287 25.7726 17.1904 25.494 16.7139 24.9368L16.2801 24.4295C14.6032 22.4686 13.7648 21.4882 14.0574 20.5473C14.35 19.6064 15.5799 19.3281 18.0395 18.7716L18.6759 18.6276C19.3749 18.4695 19.7243 18.3904 20.0049 18.1774C20.2856 17.9643 20.4655 17.6415 20.8255 16.9958Z" fill="#B5895C"/>
</svg>
