<svg width="25" height="25" viewBox="0 0 25 25" fill="none" xmlns="http://www.w3.org/2000/svg">
<g id="touch_app">
<mask id="mask0_490_4412" style="mask-type:alpha" maskUnits="userSpaceOnUse" x="0" y="0" width="25" height="25">
<rect id="Bounding box" x="0.5" y="0.355225" width="24" height="24" fill="#D9D9D9"/>
</mask>
<g mask="url(#mask0_490_4412)">
<path id="touch_app_2" d="M10.975 22.3552C10.5084 22.3552 10.0709 22.2552 9.66252 22.0552C9.25419 21.8552 8.90835 21.5719 8.62502 21.2052L3.60002 14.8302C3.46669 14.6802 3.40835 14.5011 3.42502 14.2927C3.44169 14.0844 3.51669 13.9136 3.65002 13.7802C3.98335 13.4302 4.38335 13.2219 4.85002 13.1552C5.31669 13.0886 5.75002 13.1802 6.15002 13.4302L8.00002 14.5552V6.35522C8.00002 6.07189 8.09585 5.83439 8.28752 5.64272C8.47919 5.45106 8.71669 5.35522 9.00002 5.35522C9.28335 5.35522 9.52502 5.45106 9.72502 5.64272C9.92502 5.83439 10.025 6.07189 10.025 6.35522V16.3552C10.025 16.7386 9.85419 17.0261 9.51252 17.2177C9.17085 17.4094 8.83335 17.4052 8.50002 17.2052L7.60002 16.6552L10.2 19.9802C10.3 20.0969 10.4167 20.1886 10.55 20.2552C10.6834 20.3219 10.825 20.3552 10.975 20.3552H16.5C17.05 20.3552 17.5209 20.1594 17.9125 19.7677C18.3042 19.3761 18.5 18.9052 18.5 18.3552V14.3552C18.5 14.0719 18.4042 13.8344 18.2125 13.6427C18.0209 13.4511 17.7834 13.3552 17.5 13.3552H13.025C12.7417 13.3552 12.5042 13.2594 12.3125 13.0677C12.1209 12.8761 12.025 12.6386 12.025 12.3552C12.025 12.0719 12.1209 11.8344 12.3125 11.6427C12.5042 11.4511 12.7417 11.3552 13.025 11.3552H17.5C18.3334 11.3552 19.0417 11.6469 19.625 12.2302C20.2084 12.8136 20.5 13.5219 20.5 14.3552V18.3552C20.5 19.4552 20.1084 20.3969 19.325 21.1802C18.5417 21.9636 17.6 22.3552 16.5 22.3552H10.975ZM12.475 9.35522C12.1917 9.35522 11.9542 9.25939 11.7625 9.06772C11.5709 8.87606 11.475 8.63856 11.475 8.35522C11.475 8.32189 11.5167 8.15522 11.6 7.85522C11.7334 7.62189 11.8334 7.38439 11.9 7.14272C11.9667 6.90106 12 6.63856 12 6.35522C12 5.52189 11.7084 4.81356 11.125 4.23022C10.5417 3.64689 9.83335 3.35522 9.00002 3.35522C8.16669 3.35522 7.45835 3.64689 6.87502 4.23022C6.29169 4.81356 6.00002 5.52189 6.00002 6.35522C6.00002 6.63856 6.03335 6.90106 6.10002 7.14272C6.16669 7.38439 6.26669 7.62189 6.40002 7.85522C6.45002 7.93856 6.48335 8.02189 6.50002 8.10522C6.51669 8.18856 6.52502 8.27189 6.52502 8.35522C6.52502 8.63856 6.43335 8.87606 6.25002 9.06772C6.06669 9.25939 5.83335 9.35522 5.55002 9.35522C5.36669 9.35522 5.19585 9.30522 5.03752 9.20522C4.87919 9.10522 4.75835 8.98022 4.67502 8.83022C4.45835 8.46356 4.29169 8.07189 4.17502 7.65522C4.05835 7.23856 4.00002 6.80522 4.00002 6.35522C4.00002 4.97189 4.48752 3.79272 5.46252 2.81772C6.43752 1.84272 7.61669 1.35522 9.00002 1.35522C10.3834 1.35522 11.5625 1.84272 12.5375 2.81772C13.5125 3.79272 14 4.97189 14 6.35522C14 6.80522 13.9417 7.23856 13.825 7.65522C13.7084 8.07189 13.5417 8.46356 13.325 8.83022C13.2417 8.98022 13.125 9.10522 12.975 9.20522C12.825 9.30522 12.6584 9.35522 12.475 9.35522Z" fill="white"/>
</g>
</g>
</svg>
