<svg width="26" height="26" viewBox="0 0 26 26" fill="none" xmlns="http://www.w3.org/2000/svg">
<path d="M17 6.33333C17.7072 6.33333 18.3855 6.61428 18.8856 7.11438C19.3857 7.61448 19.6667 8.29276 19.6667 9M17 1C19.1217 1 21.1566 1.84286 22.6569 3.34315C24.1571 4.84344 25 6.87827 25 9M3.66667 2.33333H9L11.6667 9L8.33333 11C9.76128 13.8954 12.1046 16.2387 15 17.6667L17 14.3333L23.6667 17V22.3333C23.6667 23.0406 23.3857 23.7189 22.8856 24.219C22.3855 24.719 21.7072 25 21 25C15.799 24.6839 10.8935 22.4753 7.20911 18.7909C3.52467 15.1065 1.31607 10.201 1 5C1 4.29276 1.28095 3.61448 1.78105 3.11438C2.28115 2.61428 2.95942 2.33333 3.66667 2.33333Z" stroke="#B5895C" stroke-width="2" stroke-linecap="round" stroke-linejoin="round"/>
</svg>
