<svg width="20" height="20" viewBox="0 0 20 20" fill="none" xmlns="http://www.w3.org/2000/svg">
<g id="where_to_vote">
<mask id="mask0_7022_1656" style="mask-type:alpha" maskUnits="userSpaceOnUse" x="0" y="0" width="20" height="20">
<rect id="Bounding box" width="20" height="20" fill="#D9D9D9"/>
</mask>
<g mask="url(#mask0_7022_1656)">
<path id="where_to_vote_2" d="M9.12502 9.03043L8.39752 8.30293C8.27349 8.17904 8.12842 8.11571 7.96231 8.11293C7.7962 8.11029 7.64849 8.17362 7.51919 8.30293C7.39002 8.43223 7.32544 8.5807 7.32544 8.74834C7.32544 8.91612 7.39002 9.06466 7.51919 9.19397L8.59773 10.2852C8.74842 10.4359 8.92419 10.5113 9.12502 10.5113C9.32585 10.5113 9.50162 10.4359 9.65231 10.2852L12.5225 7.41501C12.6464 7.29112 12.7097 7.14397 12.7123 6.97355C12.715 6.80313 12.6517 6.65328 12.5225 6.52397C12.3932 6.3948 12.2447 6.33022 12.0769 6.33022C11.9093 6.33022 11.7608 6.3948 11.6315 6.52397L9.12502 9.03043ZM10 16.2613C11.6303 14.8018 12.8779 13.402 13.7427 12.0617C14.6076 10.7214 15.04 9.54751 15.04 8.54001C15.04 7.02084 14.5574 5.77196 13.5921 4.79334C12.6268 3.81473 11.4295 3.32543 10 3.32543C8.57058 3.32543 7.37322 3.81473 6.40794 4.79334C5.44266 5.77196 4.96002 7.02084 4.96002 8.54001C4.96002 9.54751 5.39245 10.7214 6.25731 12.0617C7.12217 13.402 8.36974 14.8018 10 16.2613ZM10 17.4502C9.83766 17.4502 9.6753 17.4222 9.51294 17.3663C9.35044 17.3102 9.20349 17.2233 9.0721 17.1058C8.32433 16.4167 7.62454 15.707 6.97273 14.9767C6.32106 14.2465 5.75461 13.5166 5.27336 12.7869C4.79197 12.0572 4.41106 11.3339 4.13065 10.6171C3.85023 9.90015 3.71002 9.20779 3.71002 8.54001C3.71002 6.61695 4.33204 5.06008 5.57606 3.86938C6.82023 2.67869 8.29488 2.08334 10 2.08334C11.7052 2.08334 13.1798 2.67869 14.424 3.86938C15.668 5.06008 16.29 6.61695 16.29 8.54001C16.29 9.20779 16.1498 9.89876 15.8694 10.6129C15.589 11.3272 15.2095 12.0506 14.7309 12.7829C14.2521 13.5153 13.6869 14.2452 13.0352 14.9727C12.3836 15.7004 11.6838 16.4087 10.9359 17.0977C10.8045 17.2152 10.6563 17.3033 10.4913 17.3621C10.3261 17.4208 10.1624 17.4502 10 17.4502Z" fill="#14AE5C"/>
</g>
</g>
</svg>
